<svg xmlns="http://www.w3.org/2000/svg" viewBox="0 0 54.7 21.31"><defs><style>.cls-1{fill:#616160;}</style></defs><title>ikone</title><g id="Camada_2" data-name="Camada 2"><g id="Camada_1-2" data-name="Camada 1"><path class="cls-1" d="M34.47,17.51l-.26-.59-.27.59Zm.11.24h-.75l-.19.43h-.28l.86-1.85.83,1.85h-.29l-.18-.43Z"/><polygon class="cls-1" points="35.5 18.18 35.5 16.32 36.77 17.65 36.77 16.44 37.03 16.44 37.03 18.28 35.76 16.96 35.76 18.18 35.5 18.18 35.5 18.18"/><path class="cls-1" d="M37.87,17.3a.63.63,0,0,0,.64.66.62.62,0,0,0,.46-.19.6.6,0,0,0,.19-.46.63.63,0,0,0-.19-.47.59.59,0,0,0-.46-.19.58.58,0,0,0-.45.19.62.62,0,0,0-.19.46Zm-.26,0a.82.82,0,0,1,.26-.63.89.89,0,0,1,.65-.27.87.87,0,0,1,.64.27.9.9,0,0,1,.26.64.87.87,0,0,1-.27.64.91.91,0,0,1-1.25,0,.82.82,0,0,1-.29-.67Z"/><path class="cls-1" d="M41,16.7l-.22.12a.3.3,0,0,0-.11-.13.23.23,0,0,0-.14,0,.29.29,0,0,0-.19.06.22.22,0,0,0-.07.16c0,.08.06.15.19.2l.17.07a.7.7,0,0,1,.31.21.44.44,0,0,1,.1.3.52.52,0,0,1-.16.4.57.57,0,0,1-.77,0,.57.57,0,0,1-.18-.37l.26-.06a.43.43,0,0,0,.07.21.25.25,0,0,0,.23.11.32.32,0,0,0,.21-.08.29.29,0,0,0,.08-.21.29.29,0,0,0,0-.09.2.2,0,0,0,0-.08l-.08-.07-.11-.05-.17-.07a.49.49,0,0,1-.36-.45.39.39,0,0,1,.15-.32.56.56,0,0,1,.38-.14.53.53,0,0,1,.47.3Z"/><path class="cls-1" d="M37.84,13.13h5.59v2.13H33.35L38.56,9c.51-.62.94-1.17,1.29-1.63a10.52,10.52,0,0,0,.79-1.16,3.24,3.24,0,0,0,.56-1.64,2.35,2.35,0,0,0-.74-1.76,2.58,2.58,0,0,0-1.83-.71c-1.52,0-2.39.9-2.61,2.69H33.77Q34.31,0,38.56,0A4.81,4.81,0,0,1,42,1.3a4.22,4.22,0,0,1,1.4,3.23,4.92,4.92,0,0,1-.65,2.4,11,11,0,0,1-1,1.46c-.42.56-1,1.22-1.61,2l-2.33,2.76Z"/><path class="cls-1" d="M54.43,5.09H48.71L47.8,8.16l.39,0h.34A5.82,5.82,0,0,1,53,9.94a6.42,6.42,0,0,1,1.74,4.64,6.41,6.41,0,0,1-2,4.83,6.86,6.86,0,0,1-5,1.9A6.51,6.51,0,0,1,42,17.85l2.11-1.79a6.56,6.56,0,0,0,1.76,2.1,3.83,3.83,0,0,0,2.18.6,3.78,3.78,0,0,0,2.82-1.17A4.15,4.15,0,0,0,52,14.64a3.93,3.93,0,0,0-1.13-2.9A3.75,3.75,0,0,0,48,10.57a4.13,4.13,0,0,0-3.26,1.65h-.92l2.92-9.75h7.66V5.09Z"/><polygon class="cls-1" points="13.7 13.58 13.7 11.35 15.43 11.35 15.43 13.58 13.7 13.58 13.7 13.58"/><polygon class="cls-1" points="1.79 8.83 0 8.83 0 2.1 1.79 2.1 1.79 8.83 1.79 8.83"/><polygon class="cls-1" points="12.81 11.69 10.13 11.69 6.54 8.09 5.47 9.15 5.47 11.69 3.48 11.69 3.48 2.1 5.47 2.1 5.47 6.63 7.14 4.96 9.81 4.96 7.95 6.81 12.78 11.66 12.81 11.69 12.81 11.69"/><path class="cls-1" d="M12.93,6.71a1.73,1.73,0,0,0,1.63,1.73,1.68,1.68,0,0,0,1.61-1.73A1.67,1.67,0,0,0,14.56,5a1.7,1.7,0,0,0-1.63,1.72Zm-1.66,0A3.28,3.28,0,1,1,14.53,10a3.26,3.26,0,0,1-3.26-3.28Z"/><polygon class="cls-1" points="27.51 3.52 27.51 11.09 20.69 5.41 20.69 13.58 18.7 13.58 18.7 1.15 25.52 6.88 25.52 3.52 27.51 3.52 27.51 3.52"/><polygon class="cls-1" points="28.54 11.69 28.54 2.1 32.86 2.1 32.86 3.9 30.54 3.9 30.54 5.69 34.14 5.69 34.14 7.5 30.54 7.5 30.54 9.89 34.49 9.89 34.49 11.69 28.54 11.69 28.54 11.69"/></g></g></svg>