<svg xmlns="http://www.w3.org/2000/svg" xmlns:xlink="http://www.w3.org/1999/xlink" viewBox="0 0 442.31 108.14"><defs><style>.cls-1{fill:url(#Gradiente_sem_nome_2);}.cls-2{fill:#eb6608;}</style><linearGradient id="Gradiente_sem_nome_2" x1="17.5" y1="15.4" x2="93.86" y2="91.76" gradientUnits="userSpaceOnUse"><stop offset="0" stop-color="#ffdf0f"/><stop offset="0.22" stop-color="#f8b50d"/><stop offset="0.44" stop-color="#f3920b"/><stop offset="0.66" stop-color="#ee7909"/><stop offset="0.85" stop-color="#ec6908"/><stop offset="1" stop-color="#eb6408"/></linearGradient></defs><title>logo-apresentacao</title><g id="Camada_2" data-name="Camada 2"><g id="device_frames" data-name="device frames"><path class="cls-1" d="M111.25,55.09l-1.62-1.62-4-19.2,1.1-1.09-1.93-1.93-.41.41L92.33,14.56l.75-.75-1.93-1.93-.71.71L74.8,2.67l.28-.27L73.15.47,71.83,1.78l-29-.94L42,0,40.2,1.77,18.45,15.46,18,15,16,16.88l.49.49L6.1,34.1,6,34,4.07,35.93,5.14,37,2.49,58.31l-.2-.21L0,60.39l2.29,2.29L3,62l7,17.18-1,1L11,82l.27-.26,12.89,16-.7.7,1.93,1.93.93-.92,12.13,5.25-.21.21,1.93,1.93,1.36-1.36,16.39.92,1.7,1.7,1.93-1.93-.19-.18,22.62-6.79,1.22,1.23,1.93-1.94-.81-.81,17.88-21,.68.68,1.93-1.93-1.25-1.25L109.37,57ZM101.07,43.32l-1.14-1.14,4.58-7.38.32.31.28-.28L109,53.51l0,0-8.63-9.46Zm3.58,21.5-.93-.94,5-7.42,0,0L105,73.71l0,0-1.59-7.55ZM103,75.58,91.84,78.89l-1.23-1.22-1,.94-5-3.19.26-.25-.28-.28,17.08-9.19,1,1,.07-.07,1.55,7.38-1.45,1.45ZM90.44,81.37l.17.16,1.93-1.93-.18-.18,11.13-3.31.2.19L85.89,97.17Zm-19.63,13L89.73,80.65l.18.19L85.32,96.77l-.17-.17-1.3,1.3L71.31,95l.08-.09Zm-21.05,6.87.94.93,1.1-1.1,6.4,4.57-.15.16-16-.9-.17-.17ZM3.31,59.13,8.48,44.6,8.9,45l1-1,12.45,13.2L21.3,58.28h0L11.93,62.1l-1-1-.89.89L4.57,60.39h0ZM19.94,32.18l0,0L6.85,34.85l-.27-.28L17,17.84l.69.7,3.51,12.4ZM57.86,6.63l13.89-3.7,1.4,1.4.21-.21,1.4,8.94-.36.36L57.72,7.05,58,6.76Zm32,6.51-13.48.58-1-1.05L73.93,3.55l.4-.4L90,13.07Zm17.5,42,.88.89-5,7.43-.51-.52L99.6,44.8l.25-.25L108.47,54ZM7.94,35.93l-.53-.52,13.13-2.63,1.1,1.11L23,56.58l-.15.15L10.41,43.53l.43-.43L8.9,41.16l-.14.15-2-4.23Zm11.4-19.59L36,12.12l.6.6v9.16l-.84.83L19.78,17l.1-.1ZM54.79,7.42l.32.32L53.4,10.6l-.49-.48L51,12.05l.57.57L37.77,22.44l-.56-.56V13.37l.18.19,1.93-1.93L39,11.34Zm46,57.4.4.39-17.08,9.2-.27-.27L99,45.1l3.18,18.35ZM34.12,71.1l.84.84.84-.85,9.88,10.23-.36.36L22.59,79.59l-.3-.3Zm3.81-46.73,13.65,6.76-28.15.68-.1-.1L35.9,24.43l1,1ZM52,13.09l.57.57V30.89l-14.17-7,.39-.4-.57-.57ZM24.74,58.7l.42-.42-.19-.2,25.4-3.24.16.16L36,69.09l-1-1-.59.6ZM50.6,54l-.24.24-26,3.26,0,0L37.15,46,38.21,47l.84-.84ZM39.52,45.7l.62-.62-1-.95L51.91,32.76l.94.94L51.48,53.07l-.41.41ZM51.73,31.78l-.4.4.12.11L38.72,43.66l-.51-.51-.94.94L23.17,32.81l.34-.34ZM36.89,70l-.44-.43L51,55.48l.19.19-4,24.67-.29-.28-.8.8L36.26,70.63ZM97.26,43.38l1.23,1.23-15.14,29-.42-.42,0,0L80.16,44.05,81.26,43ZM66.1,78.27l-1.18-1.19-.28.28L52.8,55.61l.12-.11L81.77,74.4l-.77.77.29.28Zm15.23-4.93L53.39,55l.51-.51L53.42,54l12.82-4.35.88.88.61-.6ZM69.05,48.62l-.42-.43,10.12-4.62.78.78,2.72,29.18-14-24.05Zm11.06-7.55-.38-.38L77.67,27.45l1.38-1.39-.15-.15,9.92-2.74.36.35Zm-1.53.7L55.81,32.28l20.06-5.53L77.08,28,79.15,41.2Zm-.82.82.5.5L68.14,47.71l-1-1-.5.5L54.4,33l.41-.41,23.27,9.7Zm-12.57,6,.56.56L52.92,53.53l-.83-.83,1.43-18.85.41-.4L66.15,47.66ZM51.73,56.2l.24.24.33-.33L64.14,77.85l-1,1L48.44,81.55l-.68-.68ZM88.14,22.49l.15.15-9.92,2.74-1.21-1.22-1.3-8.33.65-.65L88.62,22Zm-34.6,8-.28-.27,0,0V13.66l1.6-1.61-1-1,1.72-2.87.48.49,1.14-1.15,16.68,6.38-.56.57.38.38ZM22.71,33.27l14.1,11.29-.53.52.4.41L23.84,57l-.17-.17-1.38-23.1Zm.79,26.67.78-.78,9.62,10L33,70l.62.63L21.82,78.81l-.33-.33ZM48.7,82.17l14.71-2.73L64.92,81,66.85,79l-.18-.18L81.85,76l.1.1L70,93.57,69.46,93l-1,1L48.31,82.56Zm22.1,11.4,11.62-17,.51.51,1.2-1.2,5.06,3.19-.51.51.58.58ZM99.14,41.39l-1.35,1.35L81.34,42.3l-.74-.74L89.66,24l.41.41L91,23.5l12.58,9-.68.68L104,34.32,99.45,41.7Zm-24-15.33.15.15L54.87,31.86,54,31,74.18,15.35l1.08,1.08,0,0,1.28,8.28Zm16.27-3,.54-.54-1.41-1.42.6-5.37.67-.67,11.86,16.78ZM90,20.66l-.86.86L77,14.7l.2-.2L77,14.35l12.2-.52,1.35,1.35ZM57.33,6.09,56.07,4.83,54.94,6,43.7,1.52l27.45.89Zm-2.9.38-.29.29.11.12L38.5,10.8l-.61-.61,3.35-7.06.73.73L43.63,2.2Zm-17,3.23h0l-1.84,1.85L19.37,15.66,40.48,2.37l.27.27ZM35.2,23.23l-.25.25.47.47L22.85,31.23l-1-1-.16.16-3.39-12,.94-.94ZM11.59,64.35l1.29-1.3-.45-.45,9.38-3.81,1,1L20.75,79.2l-.27.26-8,.27-1.19-1.19ZM19.8,80.14l-.26.26,1.65,1.65,3.43,15.22,0,0-12.9-16,.93-.93Zm3.61.26-.09-.09,22,2,.32.32-9.11,6.59-.49-.49-1.93,1.93.24.24-8.13,6.55-.93-.93-.17.17L21.85,82ZM38,90.69l-1-1,9.11-6.59.78.79.07-.06,3.46,14.68-1.71,1.7.5.5-7.93,3.49L40.12,103l-.2.2L36.72,92Zm14.25,9.91.36-.36-1.42-1.42L47.55,83.31l.28-.27L68,94.49l-.46.46.79.8L60.24,105l-.67-.67-.9.89Zm16.52-4.39.67.67,1.3-1.29,12.55,2.86-.09.08.18.19L60.79,105.5l-.09-.09ZM8,44.09,3.29,57.23,5.73,37.59l.28.27.29-.29,2,4.24L7,43.1Zm2.51,34.57-7-17.18L4,60.92l5.5,1.62L9,63.05,10.92,65l-.26,13.52Zm16.8,19.82L26.74,98l8.12-6.55,1.23,1.22.09-.1,3.21,11.23-.49.49L26.77,99Z"/><polygon class="cls-2" points="136.01 34.29 140.54 19.92 138.54 19.92 135.52 29.73 132.5 19.92 130.51 19.92 135.04 34.29 136.01 34.29"/><polygon class="cls-2" points="155.37 32.4 153.13 32.4 153.13 21.8 155.37 21.8 155.37 19.91 148.97 19.91 148.97 21.8 151.21 21.8 151.21 32.4 148.97 32.4 148.97 34.29 155.37 34.29 155.37 32.4"/><polygon class="cls-2" points="172 32.4 169.77 32.4 169.77 21.8 172 21.8 172 19.91 165.61 19.91 165.61 21.8 167.84 21.8 167.84 32.4 165.61 32.4 165.61 34.29 172 34.29 172 32.4"/><polygon class="cls-2" points="188.62 32.4 186.38 32.4 186.38 21.8 188.62 21.8 188.62 19.91 182.22 19.91 182.22 21.8 184.46 21.8 184.46 32.4 182.22 32.4 182.22 34.29 188.62 34.29 188.62 32.4"/><path class="cls-2" d="M137.51,46.8a6.65,6.65,0,0,0-5,2.13,7.53,7.53,0,0,0,0,10.24,6.67,6.67,0,0,0,5,2.17,8.1,8.1,0,0,0,5.21-1.61l.11-.09V57.89l-.41.18c-1.17.51-2,.84-2.39,1a8.35,8.35,0,0,1-2.52.38,4.78,4.78,0,0,1-3.66-1.59,5.56,5.56,0,0,1,0-7.54,4.71,4.71,0,0,1,3.63-1.59,8.43,8.43,0,0,1,4.86,1.64l.46.32V48.44l-.1-.09A8.08,8.08,0,0,0,137.51,46.8Z"/><path class="cls-2" d="M153.3,46.63a6,6,0,0,0-4.9,2.24,8.78,8.78,0,0,0,0,10.33,6.43,6.43,0,0,0,9.76,0,8.72,8.72,0,0,0,0-10.32A6,6,0,0,0,153.3,46.63Zm0,12.91a4.25,4.25,0,0,1-3.53-1.63,6.66,6.66,0,0,1,0-7.71,4.62,4.62,0,0,1,7.07,0,6.61,6.61,0,0,1,0,7.71A4.32,4.32,0,0,1,153.3,59.54Z"/><polygon class="cls-2" points="173.89 57.29 165 46.87 164.05 46.88 164.05 61.23 165.98 61.23 165.98 51.05 174.74 61.13 174.83 61.23 175.81 61.23 175.81 46.88 173.89 46.88 173.89 57.29"/><path class="cls-2" d="M186.74,61.38a6.81,6.81,0,0,0,5.19-2.13,7.52,7.52,0,0,0,1.93-5.3v-.29h-6.33v1.91h4.2a4.69,4.69,0,0,1-5,3.9,5.45,5.45,0,0,1-4-1.51,5.38,5.38,0,0,1-1.51-4,5.3,5.3,0,0,1,1.47-3.88,5.14,5.14,0,0,1,3.85-1.5,5.43,5.43,0,0,1,2.6.57,6.24,6.24,0,0,1,2,1.8l.17.23,1.59-1.13-.19-.25a8.64,8.64,0,0,0-2.63-2.4,7.42,7.42,0,0,0-3.51-.74,7.09,7.09,0,0,0-5.26,2,7.21,7.21,0,0,0-2,5.28,7.11,7.11,0,0,0,2.09,5.32A7.4,7.4,0,0,0,186.74,61.38Z"/><path class="cls-2" d="M207.59,61.19l-4.74-6.61c2.82-.15,4.25-1.43,4.25-3.82a3.67,3.67,0,0,0-1.18-2.86,4.28,4.28,0,0,0-3-1h-3.87V61.19H201l0-6,4.31,6ZM201,48.77h1.95a2.41,2.41,0,0,1,1.62.55,1.75,1.75,0,0,1,.63,1.44,1.68,1.68,0,0,1-.68,1.38,2.34,2.34,0,0,1-1.55.55h-2Z"/><polygon class="cls-2" points="223.58 59.28 218 59.28 218 54.32 223.58 54.32 223.58 52.41 218 52.41 218 48.77 223.58 48.77 223.58 46.85 216.1 46.85 216.1 61.19 223.58 61.19 223.58 59.28"/><path class="cls-2" d="M231.88,57.56l.09.28a4.68,4.68,0,0,0,4.76,3.47c2.83,0,4.27-1.46,4.27-4.35a3.91,3.91,0,0,0-1.77-3.13c-.12-.09-.58-.37-3.11-1.81-1-.56-1.5-1.09-1.5-1.53a1.61,1.61,0,0,1,.61-1.31,2.18,2.18,0,0,1,1.45-.49A2.21,2.21,0,0,1,238.62,50l.13.22,1.82-.69-.15-.3a4.05,4.05,0,0,0-3.74-2.5,4.17,4.17,0,0,0-2.79.95,3.34,3.34,0,0,0-1.2,2.68,2.74,2.74,0,0,0,.56,1.81,8.34,8.34,0,0,0,2.16,1.54A25.81,25.81,0,0,1,238,55.31,2.43,2.43,0,0,1,239.1,57a2.07,2.07,0,0,1-2.37,2.37,3.36,3.36,0,0,1-1.89-.55,1.8,1.8,0,0,1-.92-1.57v-.41Z"/><path class="cls-2" d="M257.63,57a3.89,3.89,0,0,0-1.77-3.13c-.12-.09-.57-.37-3.1-1.81-1-.56-1.51-1.09-1.51-1.53a1.59,1.59,0,0,1,.62-1.31,2.13,2.13,0,0,1,1.44-.49A2.22,2.22,0,0,1,255.26,50l.12.22,1.82-.69-.15-.3a4,4,0,0,0-3.74-2.5,4.15,4.15,0,0,0-2.78.95,3.34,3.34,0,0,0-1.2,2.68,2.74,2.74,0,0,0,.55,1.81,8.45,8.45,0,0,0,2.17,1.54,27.16,27.16,0,0,1,2.54,1.56A2.41,2.41,0,0,1,255.73,57a2.06,2.06,0,0,1-2.36,2.37,3.41,3.41,0,0,1-1.9-.55,1.8,1.8,0,0,1-.92-1.57v-.41l-2,.69.1.28a4.68,4.68,0,0,0,4.76,3.47C256.2,61.31,257.63,59.85,257.63,57Z"/><path class="cls-2" d="M269.75,46.63a6,6,0,0,0-4.9,2.24,8.76,8.76,0,0,0,0,10.33,6.43,6.43,0,0,0,9.76,0,8.76,8.76,0,0,0,0-10.32A6,6,0,0,0,269.75,46.63Zm0,12.91a4.28,4.28,0,0,1-3.53-1.63,6.66,6.66,0,0,1,0-7.71,4.62,4.62,0,0,1,7.07,0,6.61,6.61,0,0,1,0,7.71A4.29,4.29,0,0,1,269.75,59.54Z"/><path class="cls-2" d="M303.73,50.62a3.52,3.52,0,0,0-1.14-2.75,4.07,4.07,0,0,0-2.82-1H296V61.22h4.69A5,5,0,0,0,304,60.07a4.16,4.16,0,0,0,1.39-3.25,4.48,4.48,0,0,0-1-2.84,3.44,3.44,0,0,0-1.77-1.25A2.49,2.49,0,0,0,303.73,50.62Zm-2.42,1.32a1.9,1.9,0,0,1-1.37.5h-2.06V48.8h1.95c1.37,0,2,.58,2,1.83A1.7,1.7,0,0,1,301.31,51.94Zm-.62,7.37h-2.81v-5h2.81a3,3,0,0,1,2,.68,2.29,2.29,0,0,1,.85,1.82,2.26,2.26,0,0,1-.82,1.84A3,3,0,0,1,300.69,59.31Z"/><path class="cls-2" d="M319.31,50.79a3.66,3.66,0,0,0-1.17-2.86,4.3,4.3,0,0,0-3-1h-3.87V61.22h1.9l0-6,4.31,6h2.26l-4.75-6.61C317.88,54.46,319.31,53.18,319.31,50.79Zm-6.1-2h1.94a2.46,2.46,0,0,1,1.63.55,1.76,1.76,0,0,1,.63,1.44,1.68,1.68,0,0,1-.68,1.38,2.35,2.35,0,0,1-1.55.55h-2Z"/><path class="cls-2" d="M329.6,46.9,324,61.22h2l1.46-4h5.37l1.43,4h2L330.74,46.9ZM332,55.35h-3.8l1.91-4.78Z"/><path class="cls-2" d="M340.28,57.59l.09.28a4.68,4.68,0,0,0,4.76,3.47c2.83,0,4.27-1.46,4.27-4.35a3.91,3.91,0,0,0-1.77-3.13c-.12-.09-.57-.37-3.11-1.81-1-.56-1.5-1.09-1.5-1.53a1.61,1.61,0,0,1,.61-1.31,2.18,2.18,0,0,1,1.45-.49A2.21,2.21,0,0,1,347,50.07l.13.22,1.82-.7-.15-.29a4.05,4.05,0,0,0-3.74-2.5,4.17,4.17,0,0,0-2.79,1,3.34,3.34,0,0,0-1.2,2.68,2.78,2.78,0,0,0,.56,1.81,8.53,8.53,0,0,0,2.16,1.54,24.59,24.59,0,0,1,2.54,1.56,2.43,2.43,0,0,1,1.15,1.72,2.07,2.07,0,0,1-2.37,2.37,3.36,3.36,0,0,1-1.89-.55,1.81,1.81,0,0,1-.92-1.57V56.9Z"/><polygon class="cls-2" points="362.81 48.76 362.81 46.87 356.41 46.87 356.41 48.76 358.65 48.76 358.65 59.37 356.41 59.37 356.41 61.26 362.81 61.26 362.81 59.37 360.57 59.37 360.57 48.76 362.81 48.76"/><polygon class="cls-2" points="371.89 46.88 369.97 46.88 369.97 61.22 378.7 61.22 378.7 59.31 371.89 59.31 371.89 46.88"/><polygon class="cls-2" points="392.8 48.8 392.8 46.88 385.32 46.88 385.32 61.22 392.8 61.22 392.8 59.31 387.23 59.31 387.23 54.35 392.8 54.35 392.8 52.44 387.23 52.44 387.23 48.8 392.8 48.8"/><polygon class="cls-2" points="407 48.76 407 46.87 400.6 46.87 400.6 48.76 402.84 48.76 402.84 59.37 400.6 59.37 400.6 61.26 407 61.26 407 59.37 404.76 59.37 404.76 48.76 407 48.76"/><path class="cls-2" d="M422.41,50.79a3.66,3.66,0,0,0-1.17-2.86,4.3,4.3,0,0,0-3-1h-3.87V61.22h1.9l0-6,4.32,6h2.25l-4.75-6.61C421,54.46,422.41,53.18,422.41,50.79Zm-6.1-2h1.95a2.43,2.43,0,0,1,1.62.55,1.77,1.77,0,0,1,.63,1.44,1.68,1.68,0,0,1-.68,1.38,2.35,2.35,0,0,1-1.55.55h-2Z"/><path class="cls-2" d="M433.25,46.66a6,6,0,0,0-4.9,2.24,8.76,8.76,0,0,0,0,10.33,6.43,6.43,0,0,0,9.76,0,8.76,8.76,0,0,0,0-10.32A6,6,0,0,0,433.25,46.66Zm0,12.9a4.27,4.27,0,0,1-3.53-1.62,6.66,6.66,0,0,1,0-7.71,4.63,4.63,0,0,1,7.08,0,6.64,6.64,0,0,1,0,7.7A4.3,4.3,0,0,1,433.25,59.56Z"/><path class="cls-2" d="M135.4,75.06h-5V89.4h5a7,7,0,0,0,2.44-.58,5.92,5.92,0,0,0,3.1-2.66,7.92,7.92,0,0,0,.94-4,7.51,7.51,0,0,0-1.69-5A5.92,5.92,0,0,0,135.4,75.06Zm-3.08,1.88h3.08a4.07,4.07,0,0,1,3.36,1.59A5.71,5.71,0,0,1,140,82.2a5.59,5.59,0,0,1-1.24,3.68,4.14,4.14,0,0,1-3.39,1.61h-3Z"/><polygon class="cls-2" points="155.08 76.97 155.08 75.06 147.6 75.06 147.6 89.4 155.08 89.4 155.08 87.48 149.5 87.48 149.5 82.53 155.08 82.53 155.08 80.62 149.5 80.62 149.5 76.97 155.08 76.97"/><polygon class="cls-2" points="181.2 87.48 175.62 87.48 175.62 82.53 181.2 82.53 181.2 80.62 175.62 80.62 175.62 76.97 181.2 76.97 181.2 75.06 173.72 75.06 173.72 89.4 181.2 89.4 181.2 87.48"/><polygon class="cls-2" points="197.56 89.43 198.55 89.43 198.55 75.08 196.62 75.08 196.62 85.5 187.73 75.08 186.78 75.09 186.78 89.43 188.71 89.43 188.71 79.26 197.47 89.33 197.56 89.43"/><polygon class="cls-2" points="204.13 89.4 211.61 89.4 211.61 87.48 206.03 87.48 206.03 82.53 211.61 82.53 211.61 80.62 206.03 80.62 206.03 76.97 211.61 76.97 211.61 75.06 204.13 75.06 204.13 89.4"/><path class="cls-2" d="M220.9,83.41l4.31,6h2.25l-4.74-6.62c2.82-.14,4.25-1.43,4.25-3.82a3.67,3.67,0,0,0-1.18-2.86,4.28,4.28,0,0,0-3-1H219V89.4h1.9Zm0-6.43h1.94a2.4,2.4,0,0,1,1.62.54,1.77,1.77,0,0,1,.64,1.45,1.72,1.72,0,0,1-.69,1.38,2.34,2.34,0,0,1-1.55.55h-2Z"/><path class="cls-2" d="M239.25,83.78h4.19a4.68,4.68,0,0,1-5,3.89,5.45,5.45,0,0,1-4-1.5,5.9,5.9,0,0,1-.05-7.85,5.2,5.2,0,0,1,3.85-1.5,5.43,5.43,0,0,1,2.6.57,6.43,6.43,0,0,1,2,1.81l.17.23,1.59-1.14-.19-.24a8.84,8.84,0,0,0-2.64-2.41,7.52,7.52,0,0,0-3.51-.73,7.46,7.46,0,0,0-5.19,12.64,7.44,7.44,0,0,0,5.38,2,6.76,6.76,0,0,0,5.18-2.14,7.48,7.48,0,0,0,1.93-5.3v-.29h-6.32Z"/><polygon class="cls-2" points="250.29 76.94 252.53 76.94 252.53 87.54 250.29 87.54 250.29 89.43 256.69 89.43 256.69 87.54 254.46 87.54 254.46 76.94 256.69 76.94 256.69 75.05 250.29 75.05 250.29 76.94"/><path class="cls-2" d="M268.14,75.07,262.57,89.4h2l1.45-4h5.37l1.43,4h2l-5.53-14.33Zm2.44,8.46h-3.8l1.91-4.79Z"/><path class="cls-2" d="M298.06,82c-.12-.09-.58-.38-3.11-1.82-1-.55-1.5-1.08-1.5-1.52a1.59,1.59,0,0,1,.62-1.31,2.13,2.13,0,0,1,1.44-.49,2.21,2.21,0,0,1,1.94,1.35l.13.22,1.82-.7-.15-.29a4.05,4.05,0,0,0-3.74-2.5,4.22,4.22,0,0,0-2.79.94,3.39,3.39,0,0,0-1.2,2.68,2.79,2.79,0,0,0,.56,1.82,8.45,8.45,0,0,0,2.17,1.54,24.57,24.57,0,0,1,2.53,1.56,2.42,2.42,0,0,1,1.15,1.72,2.06,2.06,0,0,1-2.36,2.36,3.36,3.36,0,0,1-1.9-.54,1.81,1.81,0,0,1-.92-1.57V85l-2,.69.1.28a4.67,4.67,0,0,0,4.76,3.47c2.79,0,4.26-1.51,4.26-4.35A3.91,3.91,0,0,0,298.06,82Z"/><path class="cls-2" d="M310,74.78a6,6,0,0,0-4.9,2.24,8.76,8.76,0,0,0,0,10.33,6.42,6.42,0,0,0,9.75,0,8.74,8.74,0,0,0,0-10.33A6,6,0,0,0,310,74.78Zm0,12.9a4.26,4.26,0,0,1-3.53-1.62,6.66,6.66,0,0,1,0-7.71,4.63,4.63,0,0,1,7.07,0,6,6,0,0,1,1.24,3.87A5.9,5.9,0,0,1,313.58,86,4.26,4.26,0,0,1,310,87.68Z"/><polygon class="cls-2" points="322.32 75 320.4 75 320.4 89.34 329.13 89.34 329.13 87.43 322.32 87.43 322.32 75"/><path class="cls-2" d="M339,75l-5.58,14.33h2l1.45-4h5.37l1.43,4h2L340.08,75Zm2.43,8.46h-3.8l1.91-4.79Z"/><path class="cls-2" d="M358.12,78.91A3.69,3.69,0,0,0,356.94,76a4.29,4.29,0,0,0-3-1h-3.87V89.34H352l0-6,4.32,6h2.25l-4.74-6.62C356.69,82.58,358.12,81.3,358.12,78.91Zm-6.11-2H354a2.47,2.47,0,0,1,1.62.54,1.76,1.76,0,0,1,.63,1.45,1.71,1.71,0,0,1-.68,1.38,2.35,2.35,0,0,1-1.55.55h-2Z"/><path class="cls-2" d="M394.8,81.86a5.21,5.21,0,0,0,.91-2.8A3.91,3.91,0,0,0,394.42,76a4.7,4.7,0,0,0-3.17-1.06,4.33,4.33,0,0,0-3,1.09,5.08,5.08,0,0,0-1.51,2.8l-.08.35h1.93l.06-.22a2.82,2.82,0,0,1,.93-1.53,2.48,2.48,0,0,1,1.66-.57,2.52,2.52,0,0,1,1.79.62,2.14,2.14,0,0,1,.66,1.66A3.29,3.29,0,0,1,393,81c-.11.17-.58.73-1.39,1.66l-5.79,6.69h9.82V87.43h-5.61L393,84.09A21.18,21.18,0,0,0,394.8,81.86Z"/><path class="cls-2" d="M405.7,74.85a4.69,4.69,0,0,0-4.22,2.53,9.45,9.45,0,0,0-1.22,4.88,9.13,9.13,0,0,0,1.22,4.82,4.85,4.85,0,0,0,8.43,0,10.35,10.35,0,0,0,0-9.71A4.67,4.67,0,0,0,405.7,74.85Zm0,1.92a3,3,0,0,1,2.73,1.84,7.75,7.75,0,0,1,.79,3.61,7.67,7.67,0,0,1-.8,3.59,2.94,2.94,0,0,1-2.72,1.8,3,3,0,0,1-2.79-1.78,7.49,7.49,0,0,1-.82-3.61,7.63,7.63,0,0,1,.82-3.63A3,3,0,0,1,405.7,76.77Z"/><path class="cls-2" d="M423.51,81.86a5.21,5.21,0,0,0,.91-2.8A3.94,3.94,0,0,0,423.13,76,4.71,4.71,0,0,0,420,74.92,4.37,4.37,0,0,0,417,76a5.14,5.14,0,0,0-1.51,2.8l-.07.35h1.93l.05-.22a2.83,2.83,0,0,1,.94-1.53,2.44,2.44,0,0,1,1.65-.57,2.5,2.5,0,0,1,1.79.62,2.11,2.11,0,0,1,.67,1.66,3.37,3.37,0,0,1-.67,1.87c-.12.17-.58.73-1.39,1.66l-5.8,6.69h9.82V87.43h-5.6l2.93-3.34A22.61,22.61,0,0,0,423.51,81.86Z"/><path class="cls-2" d="M434.4,74.85a4.7,4.7,0,0,0-4.22,2.53A9.45,9.45,0,0,0,429,82.26a9.13,9.13,0,0,0,1.22,4.82,4.72,4.72,0,0,0,4.22,2.45,4.66,4.66,0,0,0,4.21-2.46,10.35,10.35,0,0,0,0-9.71A4.67,4.67,0,0,0,434.4,74.85Zm0,1.92a3,3,0,0,1,2.74,1.84,7.87,7.87,0,0,1,.79,3.61,7.67,7.67,0,0,1-.8,3.59,3,3,0,0,1-2.73,1.8,3,3,0,0,1-2.79-1.78,7.49,7.49,0,0,1-.81-3.61,7.63,7.63,0,0,1,.81-3.63A3,3,0,0,1,434.4,76.77Z"/><rect class="cls-2" x="370.89" y="80.29" width="3.99" height="3.99" transform="translate(51.03 287.77) rotate(-45)"/><rect class="cls-2" x="193.91" y="25.93" width="248.39" height="2.35"/></g></g></svg>