<svg xmlns="http://www.w3.org/2000/svg" viewBox="0 0 88.05 23.04"><defs><style>.cls-1,.cls-2{fill:#616160;}.cls-2{fill-rule:evenodd;}</style></defs><title>ufc</title><g id="Camada_2" data-name="Camada 2"><g id="Camada_1-2" data-name="Camada 1"><path class="cls-1" d="M41.81,8.66v.55c0,.17,0,.32,0,.46a3,3,0,0,1,0,.34.58.58,0,0,1-.06.22.16.16,0,0,1-.13.11l-.11,0h-.13a.11.11,0,0,0-.08,0,.08.08,0,0,0,0,0,0,0,0,0,0,0,.05l.1,0H43l.54,0h.86a.23.23,0,0,0,.1,0l.06-.12a1.06,1.06,0,0,0,0-.14l0-.2a1.36,1.36,0,0,1,0-.21c0-.06,0-.11,0-.15s0-.07,0-.1a.08.08,0,0,0-.05-.05.05.05,0,0,0,0,0,.24.24,0,0,0,0,.07.89.89,0,0,1-.09.3.44.44,0,0,1-.19.17l-.2,0-.22,0h-.2a2.43,2.43,0,0,1-.52,0,.46.46,0,0,1-.28-.16.62.62,0,0,1-.08-.33s0-.11,0-.19V9.16c0-.09,0-.18,0-.26V8.13l0,0h1a.53.53,0,0,1,.2,0l.11.08a.26.26,0,0,1,0,.12.5.5,0,0,1,0,.12.41.41,0,0,0,0,.11,0,0,0,0,0,0,0,.06.06,0,0,0,.05,0s0,0,0,0a.08.08,0,0,0,0-.05V8.53a.56.56,0,0,0,0-.07V8.35a.62.62,0,0,0,0-.13.53.53,0,0,0,0-.12l0-.25a1.15,1.15,0,0,0,0-.14.56.56,0,0,1,0-.07.05.05,0,0,0,0,0s0,0,0,0l0,0s0,0-.06.06a.35.35,0,0,1-.12.07l-.19,0H42.73s0,0,0,0a.07.07,0,0,1,0,0V6.14s0,0,0,0l0,0h1a.89.89,0,0,1,.24,0,.32.32,0,0,1,.13.08l.06.1,0,.08s0,.06,0,.09v.06a.35.35,0,0,0,0,.06s0,0,0,0a0,0,0,0,0,0,0s0,0,0,0v0s0,0,0-.09a.49.49,0,0,0,0-.12.57.57,0,0,0,0-.12s0-.07,0-.09a1.18,1.18,0,0,1,0-.22.71.71,0,0,1,0-.12.2.2,0,0,0,0-.07.06.06,0,0,0,0,0l0,0,0,0H44.3l-.11,0-.16,0H41.18a0,0,0,0,0,0,0s0,0,0,0h.34a.84.84,0,0,1,.16.07.24.24,0,0,1,.09.11.4.4,0,0,1,0,.17v.12a.76.76,0,0,1,0,.16V8.66Z"/><path class="cls-1" d="M38,10.2l.1.23a.31.31,0,0,0,.09.12.11.11,0,0,0,.08,0,.1.1,0,0,0,.08,0,.46.46,0,0,0,.1-.14c0-.06.08-.16.13-.28s.12-.25.2-.44L39.09,9l.38-.84.24-.51.19-.42.18-.38.18-.41a3.06,3.06,0,0,1,.15-.31.91.91,0,0,1,.1-.16s.06-.07.09-.08a.34.34,0,0,1,.12-.06l.11,0H41s0,0,0,0,0,0,0,0H39.43s0,0,0,0,0,0,0,0h.21l.13,0,.07,0a.14.14,0,0,1,0,.07.52.52,0,0,1,0,.11.56.56,0,0,1,0,.12c0,.07-.06.15-.11.27s-.1.26-.16.42-.14.33-.21.51-.15.36-.23.55-.15.36-.22.53-.14.33-.2.48l-.15.35h0l-1.1-2.83c0-.11-.08-.21-.11-.29a.58.58,0,0,1,0-.19.08.08,0,0,1,0-.07.08.08,0,0,1,.05-.05.23.23,0,0,1,.1,0h.22s0,0,0,0,0,0,0,0h-1.9a.23.23,0,0,0-.12,0s0,0,0,0a.06.06,0,0,0,0,0s0,0,.06,0h.25l.2.07a.4.4,0,0,1,.15.14,1.92,1.92,0,0,1,.14.26Z"/><path class="cls-1" d="M33.93,8.66v.57c0,.18,0,.33,0,.47a3,3,0,0,1,0,.34.81.81,0,0,1,0,.21.19.19,0,0,1-.14.09l-.1,0h-.13s-.07,0-.08,0a.05.05,0,0,0,0,0s0,0,0,.05l.09,0h1.91l.09,0s0,0,0-.05a.05.05,0,0,0,0,0s0,0-.07,0h-.23l-.11,0a.33.33,0,0,1-.15-.05.27.27,0,0,1-.08-.1l0-.14a3.16,3.16,0,0,1,0-.35c0-.13,0-.29,0-.47V6.49c0-.06,0-.12,0-.16V6.21A.53.53,0,0,1,34.89,6a.26.26,0,0,1,.18-.1h.27a.06.06,0,0,0,0-.06s0,0,0,0H33.4s0,0,0,0a.06.06,0,0,0,0,.06h.19l.12,0,.12.06a.23.23,0,0,1,.07.1.48.48,0,0,1,0,.18V8.66Z"/><path class="cls-1" d="M28.4,7.06h0a1.42,1.42,0,0,1,.2.19l.35.37.46.48.53.52.53.51.53.5.47.46.38.35a.27.27,0,0,0,.12.09.24.24,0,0,0,.15,0,.09.09,0,0,0,.07,0,.35.35,0,0,0,0-.16l.07-4a1.85,1.85,0,0,1,0-.29.48.48,0,0,1,.07-.16.47.47,0,0,1,.14-.08h.2s.07,0,.09,0a.05.05,0,0,0,0,0,0,0,0,0,0,0,0,.16.16,0,0,0-.1,0H31.24a.2.2,0,0,0-.11,0,0,0,0,0,0-.05,0l0,0s0,0,.08,0h.23l.12,0a.36.36,0,0,1,.12.08.38.38,0,0,1,.07.17,1.3,1.3,0,0,1,0,.31l.07,2.81h0l-.14-.14-.27-.27L31,8.49l-.36-.35c-.11-.12-.22-.22-.31-.31s-.38-.37-.56-.56l-.53-.53-.45-.45L28.51,6l-.15-.15-.16-.14a.24.24,0,0,0-.13-.07.13.13,0,0,0-.08.07.31.31,0,0,0,0,.15L27.9,9.57c0,.18,0,.33,0,.43a.59.59,0,0,1-.06.24.22.22,0,0,1-.13.1l-.15,0H27.4a.08.08,0,0,0-.07,0s0,0,0,0a.07.07,0,0,0,0,.06h1.77a.05.05,0,0,0,0-.06.05.05,0,0,0,0,0s-.05,0-.09,0h-.17l-.17,0a.19.19,0,0,1-.11-.09.54.54,0,0,1-.08-.21,1.87,1.87,0,0,1,0-.38Z"/><path class="cls-1" d="M68,8.66c0,.2,0,.38,0,.55v.46c0,.14,0,.25,0,.34a.58.58,0,0,1-.06.22.18.18,0,0,1-.14.11l-.1,0h-.13s-.07,0-.08,0a0,0,0,0,0,0,0,0,0,0,0,0,0,.05l.09,0h1.13l.36,0,.4,0h.38a3.94,3.94,0,0,0,.81-.07,3.13,3.13,0,0,0,.63-.19,2.2,2.2,0,0,0,.46-.24l.3-.24a2.71,2.71,0,0,0,.35-.44,2.64,2.64,0,0,0,.26-.59,2.5,2.5,0,0,0,.1-.74,2.73,2.73,0,0,0-.08-.67,2.66,2.66,0,0,0-.23-.54,2,2,0,0,0-.3-.39,2,2,0,0,0-.6-.42,2.81,2.81,0,0,0-.68-.21,4.29,4.29,0,0,0-.7-.08c-.23,0-.45,0-.66,0H67.35s0,0,0,0,0,0,0,0h.35a.84.84,0,0,1,.16.07.24.24,0,0,1,.09.11s0,.1,0,.17v.28c0,.06,0,.14,0,.23V8.66Zm.87-1.21V7c0-.17,0-.31,0-.44V6.21a.19.19,0,0,1,0-.08.09.09,0,0,1,.06,0l.1,0h.31l.41,0a4.2,4.2,0,0,1,.47.08,2.39,2.39,0,0,1,.48.19,2.18,2.18,0,0,1,.47.32,1.29,1.29,0,0,1,.21.24,1.39,1.39,0,0,1,.2.34,1.89,1.89,0,0,1,.14.44,3.09,3.09,0,0,1,.06.55,4,4,0,0,1-.05.62,2.14,2.14,0,0,1-.18.54,1.2,1.2,0,0,1-.33.41,1.54,1.54,0,0,1-.42.26,1.74,1.74,0,0,1-.46.13,2.41,2.41,0,0,1-.55,0,1.74,1.74,0,0,1-.43,0,.84.84,0,0,1-.28-.09.49.49,0,0,1-.15-.12.43.43,0,0,1,0-.11.78.78,0,0,1,0-.16,1,1,0,0,1,0-.17s0-.13,0-.24V8.85c0-.18,0-.38,0-.6Z"/><path class="cls-1" d="M65.07,8.91h0s0,0,0,0l.5,1.27a.09.09,0,0,1,0,.1.08.08,0,0,1,0,0,.1.1,0,0,0-.07,0,.05.05,0,0,0,0,0s0,0,.06,0l.14,0h1.44a.15.15,0,0,0,.08,0,.05.05,0,0,0,0,0s0-.06-.09-.06H67l-.13,0-.1,0a.91.91,0,0,1-.13-.1l-.15-.2-.18-.35-.21-.5-.27-.63q-.15-.33-.3-.69l-.29-.69L65,6.53c-.08-.19-.15-.35-.2-.49l-.12-.27-.06-.12-.06-.06s0,0-.08,0a.12.12,0,0,0-.09.06,1,1,0,0,0-.1.19l-1.71,4a2.51,2.51,0,0,1-.13.28.79.79,0,0,1-.17.19.75.75,0,0,1-.24.09h-.2s0,0-.05,0,0,0,0,0a.06.06,0,0,0,0,.06h1.65a.06.06,0,0,0,0-.06.05.05,0,0,0,0,0s0,0-.08,0h-.09a.36.36,0,0,1-.21,0,.13.13,0,0,1,0-.13.59.59,0,0,1,0-.17,1.36,1.36,0,0,1,.07-.22L63.47,9l0,0h1.58Zm-1.4-.35h0v0l.64-1.6a0,0,0,0,1,0,0s0,0,0,0,0,0,0,0v0L65,8.52v0H63.67Z"/><path class="cls-1" d="M57.34,8.66v.55c0,.17,0,.32,0,.46a3,3,0,0,1,0,.34.58.58,0,0,1-.06.22.16.16,0,0,1-.13.11l-.11,0h-.12s-.07,0-.09,0l0,0a0,0,0,0,0,0,.05l.1,0H58l.37,0,.39,0h.39a4,4,0,0,0,.81-.07,3.59,3.59,0,0,0,.63-.19,2.11,2.11,0,0,0,.45-.24,2.22,2.22,0,0,0,.3-.24,2.36,2.36,0,0,0,.61-1A2.87,2.87,0,0,0,62.09,8,3.29,3.29,0,0,0,62,7.37a2.2,2.2,0,0,0-.23-.54,2,2,0,0,0-.3-.39,2,2,0,0,0-.6-.42,2.68,2.68,0,0,0-.68-.21,4.17,4.17,0,0,0-.7-.08c-.23,0-.45,0-.66,0H56.72s0,0,0,0,0,0,0,0h.34a.84.84,0,0,1,.16.07A.24.24,0,0,1,57.3,6a.4.4,0,0,1,0,.17V8.66Zm.88-1.21V6.21a.19.19,0,0,1,0-.08l.07,0,.09,0h.31l.42,0a4.46,4.46,0,0,1,.46.08,2.39,2.39,0,0,1,.48.19,2,2,0,0,1,.47.32,1.54,1.54,0,0,1,.41.58,1.89,1.89,0,0,1,.14.44,2.38,2.38,0,0,1,.06.55,4,4,0,0,1,0,.62,1.81,1.81,0,0,1-.18.54,1.2,1.2,0,0,1-.33.41,1.66,1.66,0,0,1-.41.26,1.81,1.81,0,0,1-.47.13,2.41,2.41,0,0,1-.55,0,1.8,1.8,0,0,1-.43,0,.84.84,0,0,1-.28-.09.35.35,0,0,1-.14-.12.23.23,0,0,1,0-.11l0-.16c0-.06,0-.12,0-.17s0-.13,0-.24V7.45Z"/><path class="cls-1" d="M54.52,8.66v1c0,.14,0,.25,0,.34a.54.54,0,0,1-.05.21.18.18,0,0,1-.14.09l-.1,0h-.13s-.07,0-.08,0,0,0,0,0a0,0,0,0,0,0,.05l.09,0H56l.1,0a0,0,0,0,0,0-.05l0,0a.11.11,0,0,0-.08,0H55.8l-.11,0a.33.33,0,0,1-.15-.05.18.18,0,0,1-.07-.1.57.57,0,0,1,0-.14c0-.09,0-.21,0-.35s0-.29,0-.47V6.72a1.55,1.55,0,0,1,0-.23V6.21A.44.44,0,0,1,55.48,6a.26.26,0,0,1,.18-.1h.27a.06.06,0,0,0,0-.06s0,0,0,0H54s0,0,0,0a.06.06,0,0,0,0,.06h.2l.11,0,.12.06a.23.23,0,0,1,.07.1.8.8,0,0,1,0,.18V8.66Z"/><path class="cls-1" d="M51.58,10.58a2.23,2.23,0,0,0,.36,0,1.59,1.59,0,0,0,.38-.07,1.42,1.42,0,0,0,.35-.17,1.86,1.86,0,0,0,.38-.35,1.06,1.06,0,0,0,.21-.39,1.61,1.61,0,0,0,.06-.44,1.31,1.31,0,0,0-.1-.55,1.57,1.57,0,0,0-.35-.5,2.7,2.7,0,0,0-.68-.48l-.27-.15a3,3,0,0,1-.35-.23A1,1,0,0,1,51.36,7a.58.58,0,0,1-.1-.19.76.76,0,0,1,0-.21.54.54,0,0,1,.08-.28.57.57,0,0,1,.19-.22A1.28,1.28,0,0,1,51.79,6a1.22,1.22,0,0,1,.34,0,1.18,1.18,0,0,1,.35,0,.9.9,0,0,1,.24.11.79.79,0,0,1,.13.13.69.69,0,0,1,.11.17.65.65,0,0,1,0,.15.84.84,0,0,1,0,.1c0,.08,0,.11.06.11s0,0,.06,0a.3.3,0,0,0,0-.15c0-.16,0-.3,0-.4s0-.18,0-.23,0-.1,0-.13a.05.05,0,0,0,0,0l-.06,0a3.57,3.57,0,0,0-.37-.07,4.61,4.61,0,0,0-.56,0,2.2,2.2,0,0,0-.64.09A1.73,1.73,0,0,0,51,6a1.21,1.21,0,0,0-.35.4,1,1,0,0,0-.13.53,1.3,1.3,0,0,0,.09.52,1.33,1.33,0,0,0,.32.46,3.22,3.22,0,0,0,.61.45l.38.23a2.32,2.32,0,0,1,.35.24.92.92,0,0,1,.19.23.48.48,0,0,1,.09.21,1.49,1.49,0,0,1,0,.21.81.81,0,0,1-.11.41.87.87,0,0,1-.31.29,1.07,1.07,0,0,1-.49.1,1.63,1.63,0,0,1-.31,0,1.12,1.12,0,0,1-.31-.1.69.69,0,0,1-.25-.2.64.64,0,0,1-.17-.29,1.16,1.16,0,0,1,0-.18.89.89,0,0,1,0-.15.17.17,0,0,0,0-.07.06.06,0,0,0-.06,0,.07.07,0,0,0-.06,0,.37.37,0,0,0,0,.12.72.72,0,0,1,0,.13c0,.06,0,.12,0,.2s0,.16,0,.25,0,.18,0,.26,0,.09,0,.11a.09.09,0,0,0,0,.06l.08.05.32.1.36.05h.39"/><path class="cls-1" d="M45.73,8.66v.55c0,.17,0,.32,0,.46a3,3,0,0,1,0,.34.6.6,0,0,1-.05.22.19.19,0,0,1-.14.11l-.1,0h-.13s-.07,0-.08,0a.05.05,0,0,0,0,0s0,0,0,.05l.09,0h1.82l.1,0s0,0,0-.05l0,0a.07.07,0,0,0-.06,0H47l-.1,0a.37.37,0,0,1-.15-.05.25.25,0,0,1-.08-.12s0-.1,0-.16,0-.2,0-.34,0-.29,0-.46V8.57s0,0,0,0h0l.59,0h.06a.1.1,0,0,1,0,0l.1.13.15.21a3.1,3.1,0,0,0,.18.26l.19.26c.12.17.23.31.33.43a3,3,0,0,0,.29.31,1.11,1.11,0,0,0,.27.19l.18.08.23,0h1a.06.06,0,0,0,0-.06l0,0a.07.07,0,0,0-.06,0h-.16l-.14,0a.63.63,0,0,1-.24-.11,2.18,2.18,0,0,1-.32-.27c-.19-.19-.41-.43-.65-.72l-.78-1a5.07,5.07,0,0,0,.52-.48,1.83,1.83,0,0,0,.29-.46,1.05,1.05,0,0,0,.09-.46.92.92,0,0,0,0-.29.83.83,0,0,0-.12-.25.75.75,0,0,0-.15-.2L48.37,6A1.46,1.46,0,0,0,48,5.81a3,3,0,0,0-.43-.08,3.12,3.12,0,0,0-.43,0h-2s0,0,0,0,0,0,0,0h.34a.84.84,0,0,1,.16.07.24.24,0,0,1,.09.11.4.4,0,0,1,0,.17V8.66Zm.84-2.5s0,0,0-.06,0,0,0,0l.16,0H47l.25,0a1.53,1.53,0,0,1,.27.11.79.79,0,0,1,.24.21.88.88,0,0,1,.17.32,1.27,1.27,0,0,1,.07.46,1.16,1.16,0,0,1-.07.44.86.86,0,0,1-.16.3.71.71,0,0,1-.2.19.41.41,0,0,1-.11.07l-.14,0h-.46l-.25,0,0,0a.15.15,0,0,1,0-.07Z"/><path class="cls-1" d="M85.88,16.53h0l0,0,.51,1.27a.17.17,0,0,1,0,.1.13.13,0,0,1-.06,0l-.07,0s0,0,0,0,0,0,.05,0H88l.08,0s0,0,0,0S88,18,88,18h-.11l-.13,0a.3.3,0,0,1-.11,0,.47.47,0,0,1-.12-.09,2,2,0,0,1-.16-.2c0-.09-.11-.21-.17-.35l-.22-.5-.27-.63c-.1-.22-.19-.46-.29-.69s-.2-.47-.3-.7-.18-.43-.26-.62-.15-.35-.21-.48-.1-.22-.12-.28l-.06-.11-.06-.06a.09.09,0,0,0-.07,0,.12.12,0,0,0-.1.06,1.21,1.21,0,0,0-.1.2l-1.71,4a2.51,2.51,0,0,1-.13.28.74.74,0,0,1-.17.18.58.58,0,0,1-.24.1h-.2s0,0-.05,0,0,0,0,0a.06.06,0,0,0,0,.06h1.65a.06.06,0,0,0,0-.06s0,0,0,0,0,0-.08,0H84.1a.36.36,0,0,1-.21,0,.15.15,0,0,1,0-.13.59.59,0,0,1,0-.17c0-.07,0-.14.07-.22l.35-.85,0,0h1.58Zm-1.4-.35h0v0l.64-1.6a.08.08,0,0,1,0,0l0,0,0,0a.08.08,0,0,1,0,0l.62,1.61a0,0,0,0,1,0,0H84.48Zm1.88-4.49s0,0,0-.06,0,0,0,0H86.2l-.09.05-.14.1-.25.18-.3.23-.28.23-.23.2,0,.05s0,0,0,.05l0,0h0l0,0,.08,0,.26-.12a2.52,2.52,0,0,1,.33-.13l.35-.12.34-.07h.25s0,0,0,0,0,0,0-.09l-.12-.26Z"/><path class="cls-1" d="M79,16.28v.55c0,.17,0,.32,0,.46a3.11,3.11,0,0,1,0,.34.9.9,0,0,1,0,.22.19.19,0,0,1-.14.11l-.1,0h-.13s-.07,0-.09,0a.08.08,0,0,0,0,0,.05.05,0,0,0,0,.05l.1,0H80.4l.1,0a.07.07,0,0,0,0-.05.08.08,0,0,0,0,0,.07.07,0,0,0-.06,0h-.22l-.11,0A.34.34,0,0,1,80,17.9a.3.3,0,0,1-.07-.11l0-.16a3,3,0,0,1,0-.34c0-.13,0-.29,0-.46s0-.35,0-.55v-.09a.05.05,0,0,1,0,0h.69a.1.1,0,0,1,0,0,.53.53,0,0,1,.1.13l.15.21a3.1,3.1,0,0,0,.18.26l.19.26c.12.17.23.31.33.43s.2.22.29.31a1,1,0,0,0,.28.19.51.51,0,0,0,.17.07l.23.05h1a.06.06,0,0,0,0-.06.08.08,0,0,0,0,0s0,0-.06,0h-.16l-.14,0a1,1,0,0,1-.24-.11,2.87,2.87,0,0,1-.32-.27c-.19-.19-.41-.43-.65-.72l-.78-1a4.17,4.17,0,0,0,.52-.49,1.63,1.63,0,0,0,.29-.45,1.06,1.06,0,0,0,.1-.46,1.45,1.45,0,0,0-.05-.3,1.15,1.15,0,0,0-.12-.25.9.9,0,0,0-.15-.19.87.87,0,0,0-.15-.13,1.46,1.46,0,0,0-.38-.17,2,2,0,0,0-.43-.08l-.43,0H78.5l-.11,0s0,0,0,0a.05.05,0,0,0,0,0l.08,0h.15l.11,0a.48.48,0,0,1,.16.07.22.22,0,0,1,.09.1.4.4,0,0,1,0,.17v2.46Zm.83-2.51a.14.14,0,0,1,0-.06l0,0h.39l.25,0a1,1,0,0,1,.27.11.91.91,0,0,1,.24.2,1.09,1.09,0,0,1,.17.32,1.31,1.31,0,0,1,.07.46,1.18,1.18,0,0,1-.07.45.86.86,0,0,1-.16.3.71.71,0,0,1-.2.19.41.41,0,0,1-.11.07l-.14,0H80.4l-.26,0-.24,0s0,0,0,0a.14.14,0,0,1,0-.07Z"/><path class="cls-1" d="M76.48,16.53h0l0,0,.5,1.27a.12.12,0,0,1,0,.1s0,0-.06,0a.08.08,0,0,0-.06,0,.05.05,0,0,0,0,0,0,0,0,0,0,0,0h1.58a.17.17,0,0,0,.09,0,.05.05,0,0,0,0,0s0-.06-.09-.06h-.12l-.13,0a.26.26,0,0,1-.1,0l-.13-.09a1.15,1.15,0,0,1-.15-.2,3.67,3.67,0,0,1-.18-.35l-.21-.5q-.14-.29-.27-.63l-.3-.69-.3-.7-.26-.62-.21-.48c0-.13-.09-.22-.12-.28l0-.11a.17.17,0,0,0-.06-.06.11.11,0,0,0-.08,0,.12.12,0,0,0-.09.06.73.73,0,0,0-.1.2l-1.72,4a1.46,1.46,0,0,1-.13.28.49.49,0,0,1-.17.18.53.53,0,0,1-.24.1h-.19s0,0-.06,0a.05.05,0,0,0,0,0,.06.06,0,0,0,0,.06h1.66a.06.06,0,0,0,0-.06.05.05,0,0,0,0,0s0,0-.08,0h-.1a.3.3,0,0,1-.2,0,.16.16,0,0,1-.06-.13.67.67,0,0,1,0-.17,1.11,1.11,0,0,1,.07-.22l.35-.85a.05.05,0,0,1,0,0h1.58Zm-1.41-.35h0s0,0,0,0l.63-1.6,0,0a0,0,0,0,1,0,0s0,0,0,0,0,0,0,0l.62,1.61v0h-1.3Z"/><path class="cls-1" d="M70.31,16.28c0,.2,0,.38,0,.55v.46c0,.13,0,.25,0,.34a.58.58,0,0,1-.06.22.18.18,0,0,1-.14.11L70,18h-.13s-.07,0-.08,0a0,0,0,0,0,0,0,.05.05,0,0,0,0,.05l.09,0h1.59l.54,0h.66a1.16,1.16,0,0,0,.19,0,.23.23,0,0,0,.11,0A.67.67,0,0,0,73,18a1.15,1.15,0,0,1,0-.14l0-.2,0-.21v-.15a.16.16,0,0,0,0-.1,0,0,0,0,0,0-.05s0,0,0,0a.24.24,0,0,0,0,.07.7.7,0,0,1-.1.3.37.37,0,0,1-.18.17l-.2,0-.22,0h-.2a2.37,2.37,0,0,1-.52,0,.46.46,0,0,1-.28-.16.72.72,0,0,1-.09-.33V15.8a.43.43,0,0,1,0-.05l0,0h1a.48.48,0,0,1,.19.05.36.36,0,0,1,.12.08.33.33,0,0,1,0,.12.5.5,0,0,1,0,.12.41.41,0,0,0,0,.11,0,0,0,0,0,0,0l0,0a.05.05,0,0,0,0,0s0,0,0-.05v-.13a.37.37,0,0,0,0-.11c0-.05,0-.09,0-.13s0-.09,0-.12l0-.25a1.13,1.13,0,0,1,0-.14v-.07a.09.09,0,0,0,0,0l0,0a.05.05,0,0,0,0,0,.17.17,0,0,0-.06.06.23.23,0,0,1-.12.06.56.56,0,0,1-.2,0H71.23a.05.05,0,0,1,0,0s0,0,0,0V13.76a.43.43,0,0,1,0,0h1.07a.67.67,0,0,1,.24,0,.32.32,0,0,1,.13.07l.06.11,0,.08s0,.06,0,.09v.06a.13.13,0,0,0,0,.06l0,0,0,0,0,0v0s0-.05,0-.09,0-.08,0-.12,0-.09,0-.13a.19.19,0,0,1,0-.08,1.3,1.3,0,0,1,0-.23.37.37,0,0,1,0-.12.35.35,0,0,1,0-.06s0,0,0,0l0,0h-.05l0,0-.11,0-.17,0H69.79l-.11,0s0,0,0,0a.05.05,0,0,0,0,0l.08,0h.15l.12,0a.59.59,0,0,1,.16.07.16.16,0,0,1,.08.1.61.61,0,0,1,0,.17v.29c0,.06,0,.13,0,.23v1.94Z"/><path class="cls-1" d="M73.57,8.66v1c0,.14,0,.25,0,.34a.6.6,0,0,1-.05.22.18.18,0,0,1-.14.11l-.1,0h-.13s-.07,0-.08,0,0,0,0,0a0,0,0,0,0,0,.05l.09,0h1.59l.54,0h.85l.11,0a.33.33,0,0,0,0-.12,1.06,1.06,0,0,0,0-.14l0-.2a1.65,1.65,0,0,0,0-.21.86.86,0,0,0,0-.15.34.34,0,0,0,0-.1.06.06,0,0,0,0-.05.05.05,0,0,0,0,0,.12.12,0,0,0,0,.07.87.87,0,0,1-.1.3.35.35,0,0,1-.19.17l-.19,0-.22,0h-.2a2.53,2.53,0,0,1-.53,0,.43.43,0,0,1-.27-.16.62.62,0,0,1-.09-.33V8.18a.07.07,0,0,1,0,0s0,0,0,0h1a.48.48,0,0,1,.19,0,.24.24,0,0,1,.11.08.27.27,0,0,1,.06.12.49.49,0,0,1,0,.12.41.41,0,0,1,0,.11s0,0,0,0l0,0a.05.05,0,0,0,.05,0s0,0,0-.05V8.46s0-.07,0-.11a.53.53,0,0,1,0-.13.45.45,0,0,1,0-.12c0-.1,0-.19,0-.25s0-.11,0-.14V7.64s0,0,0,0a.05.05,0,0,0-.08,0L76,7.66a.27.27,0,0,1-.12.07l-.19,0H74.5l0,0a.07.07,0,0,1,0,0V6.14s0,0,0,0l0,0h1a1.09,1.09,0,0,1,.25,0,.23.23,0,0,1,.12.08.21.21,0,0,1,.06.1.13.13,0,0,1,0,.08s0,.06,0,.09v.06s0,0,0,.06,0,0,0,0,0,0,0,0a.05.05,0,0,0,0,0l0,0a.34.34,0,0,1,0-.09.49.49,0,0,1,0-.12.41.41,0,0,1,0-.12V6.13c0-.09,0-.17,0-.22s0-.1,0-.12a.25.25,0,0,0,0-.07s0,0,0,0l0,0,0,0h-.05l-.12,0-.16,0H73s0,0,0,0,0,0,0,0h.34l.17.07a.23.23,0,0,1,.08.11.61.61,0,0,1,0,.17V8.66Z"/><path class="cls-1" d="M67.52,18.22h.37l.37,0,.33-.05.27-.08A.31.31,0,0,0,69,18l.05-.06a.3.3,0,0,0,0-.1c0-.06,0-.12,0-.19s0-.16,0-.25a2,2,0,0,0,0-.24c0-.08,0-.14,0-.2a.8.8,0,0,1,0-.11.19.19,0,0,0,0-.08.1.1,0,0,0,0,0,.06.06,0,0,0-.06,0,.34.34,0,0,0,0,.12A1.42,1.42,0,0,1,69,17a.56.56,0,0,1-.09.17.64.64,0,0,1-.11.16,1.1,1.1,0,0,1-.34.27,1.42,1.42,0,0,1-.44.12,5,5,0,0,1-.58,0,1.91,1.91,0,0,1-.52-.07,2.2,2.2,0,0,1-.53-.22,2.48,2.48,0,0,1-.5-.37,2.55,2.55,0,0,1-.41-.51A2.37,2.37,0,0,1,65.2,16a2.88,2.88,0,0,1-.11-.81,4.17,4.17,0,0,1,.06-.71,2.54,2.54,0,0,1,.21-.66,2,2,0,0,1,.42-.56,1.59,1.59,0,0,1,.82-.4,2.52,2.52,0,0,1,.58-.06,3.24,3.24,0,0,1,.64.06,2.27,2.27,0,0,1,.52.17,1.41,1.41,0,0,1,.35.23,1.15,1.15,0,0,1,.21.33,1.17,1.17,0,0,1,.08.36A.41.41,0,0,0,69,14a.05.05,0,0,0,.06,0,.07.07,0,0,0,.07,0,.39.39,0,0,0,0-.13s0-.09,0-.15v-.65c0-.09,0-.16,0-.21a.66.66,0,0,0,0-.13.2.2,0,0,0,0-.07.11.11,0,0,0,0-.06.12.12,0,0,0-.09,0l-.35-.06-.4-.07-.32,0-.35,0h-.4a4.91,4.91,0,0,0-1,.09,3.86,3.86,0,0,0-.77.27,2.85,2.85,0,0,0-.6.43,3,3,0,0,0-.44.52,2.74,2.74,0,0,0-.26.55,2.91,2.91,0,0,0-.13.53,2.39,2.39,0,0,0,0,.44,5.28,5.28,0,0,0,0,.55,3.31,3.31,0,0,0,.15.58,2.86,2.86,0,0,0,.28.55,2.66,2.66,0,0,0,.45.51,3.08,3.08,0,0,0,.74.47,3.49,3.49,0,0,0,.85.26,5.08,5.08,0,0,0,1,.08"/><path class="cls-1" d="M60.22,18.18a2.82,2.82,0,0,0,.74-.1,2.09,2.09,0,0,0,.6-.29,1.88,1.88,0,0,0,.45-.44,1.73,1.73,0,0,0,.28-.56,2.07,2.07,0,0,0,.1-.66,1.92,1.92,0,0,0-.15-.77,1.46,1.46,0,0,0-.42-.59,1.79,1.79,0,0,0-.66-.38,3,3,0,0,0-.89-.13,2.53,2.53,0,0,0-.7.09,1.88,1.88,0,0,0-.56.23,2,2,0,0,0-.41.34,2.13,2.13,0,0,0-.28.41,1.62,1.62,0,0,0-.16.45,2,2,0,0,0,.16,1.34,1.42,1.42,0,0,0,.28.41,1.89,1.89,0,0,0,.4.34,2.2,2.2,0,0,0,.54.23,2.82,2.82,0,0,0,.68.08m.21-.27a1.51,1.51,0,0,1-.65-.14,1.37,1.37,0,0,1-.49-.4,1.62,1.62,0,0,1-.31-.58,2.36,2.36,0,0,1-.11-.72,2.91,2.91,0,0,1,.07-.64,1.63,1.63,0,0,1,.2-.44,1.09,1.09,0,0,1,.29-.28,1.43,1.43,0,0,1,.34-.14,1.39,1.39,0,0,1,.35,0,1.45,1.45,0,0,1,.59.12,1.38,1.38,0,0,1,.48.36,1.59,1.59,0,0,1,.31.56,2.19,2.19,0,0,1,.12.75,2.74,2.74,0,0,1-.06.61,1.54,1.54,0,0,1-.17.43,1,1,0,0,1-.23.29,1,1,0,0,1-.26.16.9.9,0,0,1-.25.08Z"/><path class="cls-1" d="M54.06,16.66v.8c0,.11,0,.19,0,.27a.61.61,0,0,1,0,.17.16.16,0,0,1-.11.09H53.7a.08.08,0,0,0-.06,0l0,0s0,0,0,0h1l.29,0,.31,0h.3a3.87,3.87,0,0,0,.64-.06,2.71,2.71,0,0,0,.5-.15,2,2,0,0,0,.36-.19,1.83,1.83,0,0,0,.24-.19,2,2,0,0,0,.28-.35,2,2,0,0,0,.2-.47,1.77,1.77,0,0,0,.08-.58,2.2,2.2,0,0,0-.06-.53,2,2,0,0,0-.18-.42,2.22,2.22,0,0,0-.24-.32,1.71,1.71,0,0,0-.48-.33,3.27,3.27,0,0,0-.53-.17,5.32,5.32,0,0,0-.56-.06H53.57s0,0,0,0a.05.05,0,0,0,0,0h.27l.13.05a.16.16,0,0,1,.07.09,1.3,1.3,0,0,1,0,.13v1.94Zm.7-1v-1a.14.14,0,0,1,0-.07l0,0,.07,0h.24l.33,0,.37.06a1.5,1.5,0,0,1,.38.15,1.42,1.42,0,0,1,.37.25.79.79,0,0,1,.17.19,1.75,1.75,0,0,1,.16.27,1.6,1.6,0,0,1,.11.35,2,2,0,0,1,0,.44,2.63,2.63,0,0,1,0,.49,1.47,1.47,0,0,1-.13.42,1.4,1.4,0,0,1-.27.33,1.55,1.55,0,0,1-.32.2,1.58,1.58,0,0,1-.37.11,3,3,0,0,1-.44,0,1.65,1.65,0,0,1-.34,0,.93.93,0,0,1-.22-.08.35.35,0,0,1-.11-.09.19.19,0,0,1,0-.09s0-.08,0-.13a.66.66,0,0,1,0-.14s0-.09,0-.18V15.7Z"/><path class="cls-1" d="M49.86,15.16V14.11a.71.71,0,0,1,0-.16v-.13a.59.59,0,0,1,.06-.24.31.31,0,0,1,.19-.1l.13,0h.12l.09,0a.05.05,0,0,0,0,0s0,0,0,0l-.11,0H48.5l-.1,0s0,0,0,0,0,.07.11.07h.12l.1,0a.48.48,0,0,1,.16.07.22.22,0,0,1,.09.1.4.4,0,0,1,0,.17v3c0,.17,0,.32,0,.46a3.11,3.11,0,0,1,0,.34.9.9,0,0,1-.05.22.19.19,0,0,1-.14.11l-.11,0h-.12s-.07,0-.09,0a.08.08,0,0,0,0,0,.05.05,0,0,0,0,.05l.1,0h1.7l.53,0h.89a.23.23,0,0,0,.12-.05.28.28,0,0,0,.05-.11c0-.05,0-.11,0-.18l0-.22c0-.08,0-.15,0-.21s0-.1,0-.12a.24.24,0,0,0,0-.09s0-.05,0-.05a.06.06,0,0,0-.06,0,.14.14,0,0,0,0,.07.35.35,0,0,1,0,.13.35.35,0,0,1-.06.14l-.07.11a.51.51,0,0,1-.2.12.92.92,0,0,1-.25,0h-.32l-.42,0a1.68,1.68,0,0,1-.29,0,.34.34,0,0,1-.16-.08.35.35,0,0,1-.1-.22,3.52,3.52,0,0,1,0-.43v-1.8Z"/><path class="cls-1" d="M46.1,16.53h0a.05.05,0,0,1,0,0l.51,1.27a.17.17,0,0,1,0,.1.13.13,0,0,1-.06,0l-.07,0s0,0,0,0a0,0,0,0,0,0,0h1.58a.13.13,0,0,0,.08,0s0,0,0,0,0-.06-.09-.06h-.11l-.13,0a.21.21,0,0,1-.1,0l-.13-.09a1.15,1.15,0,0,1-.15-.2,2.25,2.25,0,0,1-.18-.35l-.22-.5-.27-.63-.29-.69-.3-.7L46,14.14l-.21-.48c0-.13-.09-.22-.12-.28l-.06-.11a.18.18,0,0,0,0-.07l-.08,0a.14.14,0,0,0-.1.06,1.21,1.21,0,0,0-.1.2l-1.71,4a2.51,2.51,0,0,1-.13.28.59.59,0,0,1-.17.18.53.53,0,0,1-.24.1h-.19s0,0-.06,0a.05.05,0,0,0,0,0,.06.06,0,0,0,0,.06h1.66a.08.08,0,0,0,0-.06s0,0,0,0,0,0-.08,0h-.1a.36.36,0,0,1-.21,0,.19.19,0,0,1-.05-.13,1.49,1.49,0,0,1,0-.17,1.19,1.19,0,0,1,.08-.22l.35-.85a.05.05,0,0,1,0,0H46.1Zm-1.41-.35h0a.08.08,0,0,1,0,0l.63-1.6s0,0,0,0l0,0v0l0,0L46,16.14a0,0,0,0,1,0,0H44.69Z"/><path class="cls-1" d="M39.16,16.28v.55c0,.17,0,.32,0,.46a3.11,3.11,0,0,1,0,.34.6.6,0,0,1-.05.22.18.18,0,0,1-.14.11l-.1,0h-.13s-.07,0-.08,0a.05.05,0,0,0,0,0,.07.07,0,0,0,0,.05l.09,0h1.83l.09,0a.05.05,0,0,0,0-.05.08.08,0,0,0,0,0,.07.07,0,0,0-.06,0H40.4l-.11,0a.26.26,0,0,1-.15-.06.16.16,0,0,1-.07-.11.75.75,0,0,1,0-.16c0-.09,0-.2,0-.34s0-.29,0-.46v-.64s0,0,0,0h.69l.06,0,.09.13.15.21c.06.08.11.17.18.26l.19.26a4.31,4.31,0,0,0,.34.43,2.89,2.89,0,0,0,.28.31,1,1,0,0,0,.28.19.48.48,0,0,0,.18.07l.22.05h1a.06.06,0,0,0,0-.06,0,0,0,0,0,0,0s0,0-.06,0H43.5a.56.56,0,0,1-.15,0,.92.92,0,0,1-.23-.11,1.76,1.76,0,0,1-.32-.27,7,7,0,0,1-.65-.72c-.24-.28-.5-.6-.79-1a3.57,3.57,0,0,0,.52-.49,1.63,1.63,0,0,0,.29-.45,1.06,1.06,0,0,0,.1-.46,1,1,0,0,0-.05-.3,1.89,1.89,0,0,0-.11-.25L42,13.73l-.15-.13a1.36,1.36,0,0,0-.39-.17,2,2,0,0,0-.43-.08l-.43,0H38.65l-.11,0s0,0,0,0a.05.05,0,0,0,0,0l.08,0h.15l.11,0a.54.54,0,0,1,.17.07.2.2,0,0,1,.08.1.61.61,0,0,1,0,.17v2.46ZM40,13.77a.13.13,0,0,1,0-.06l.05,0h.38l.26,0a1,1,0,0,1,.26.11.91.91,0,0,1,.24.2,1.09,1.09,0,0,1,.17.32,1.31,1.31,0,0,1,.07.46,1.44,1.44,0,0,1-.06.45,1.39,1.39,0,0,1-.16.3.88.88,0,0,1-.2.19l-.11.07-.14,0h-.21l-.26,0-.24,0a.11.11,0,0,1-.05,0,.15.15,0,0,1,0-.07Z"/><path class="cls-1" d="M35.44,16.28v.55c0,.17,0,.32,0,.46a3.11,3.11,0,0,1,0,.34.58.58,0,0,1-.06.22.16.16,0,0,1-.14.11l-.1,0H35s-.06,0-.08,0a.08.08,0,0,0,0,0,.05.05,0,0,0,0,.05l.1,0h1.58l.54,0h.67a1.19,1.19,0,0,0,.19,0,.23.23,0,0,0,.1,0,.34.34,0,0,0,.06-.12,1.06,1.06,0,0,0,0-.14l0-.2c0-.08,0-.14,0-.21s0-.11,0-.15,0-.07,0-.1,0-.05,0-.05a.05.05,0,0,0,0,0,.24.24,0,0,0,0,.07.89.89,0,0,1-.09.3.44.44,0,0,1-.19.17,1,1,0,0,1-.2,0l-.22,0h-.2a2.43,2.43,0,0,1-.52,0,.46.46,0,0,1-.28-.16.62.62,0,0,1-.08-.33s0-.11,0-.19v-.27c0-.09,0-.18,0-.27v-.76l0,0h1a.53.53,0,0,1,.2.05.31.31,0,0,1,.11.08.34.34,0,0,1,.06.12s0,.08,0,.12,0,.07,0,.11a0,0,0,0,0,0,0l0,0s0,0,0,0a.08.08,0,0,0,0-.05v-.06s0,0,0-.07V16a.62.62,0,0,0,0-.13.57.57,0,0,0,0-.12l0-.25c0-.07,0-.11,0-.14a.26.26,0,0,0,0-.07s0,0,0,0l0,0,0,0-.06.06a.23.23,0,0,1-.12.06.5.5,0,0,1-.19,0H36.36s0,0,0,0a.09.09,0,0,1,0,0V13.76a.07.07,0,0,1,0,0h1.06a.62.62,0,0,1,.24,0,.32.32,0,0,1,.13.07l.06.11,0,.08s0,.06,0,.09v.06s0,0,0,.06l.05,0,0,0,0,0v0a.22.22,0,0,0,0-.09A.49.49,0,0,0,38,14a.62.62,0,0,0,0-.13s0-.06,0-.08a1.3,1.3,0,0,1,0-.23s0-.09,0-.12a.18.18,0,0,0,0-.06s0,0,0,0,0,0,0,0h0l-.06,0-.11,0-.16,0H34.92l-.11,0s0,0,0,0a.05.05,0,0,0,0,0,.15.15,0,0,0,.08,0H35l.12,0a.48.48,0,0,1,.16.07.22.22,0,0,1,.09.1.4.4,0,0,1,0,.17V14a.71.71,0,0,1,0,.16v2.17Z"/><path class="cls-1" d="M29.92,16.28v.55c0,.17,0,.32,0,.46a3.11,3.11,0,0,1,0,.34.58.58,0,0,1-.06.22.16.16,0,0,1-.13.11l-.11,0h-.13s-.06,0-.08,0a.08.08,0,0,0,0,0,.05.05,0,0,0,0,.05l.1,0h1.12l.37,0,.39,0h.39a4,4,0,0,0,.81-.07,3.13,3.13,0,0,0,.63-.19,2.33,2.33,0,0,0,.45-.24,2.22,2.22,0,0,0,.3-.24A1.8,1.8,0,0,0,34.3,17a2.11,2.11,0,0,0,.26-.59,2.38,2.38,0,0,0,.11-.73,2.43,2.43,0,0,0-.09-.68,2.35,2.35,0,0,0-.22-.53,2.64,2.64,0,0,0-.31-.4,2.21,2.21,0,0,0-.6-.41,3.18,3.18,0,0,0-.68-.22,5.56,5.56,0,0,0-.7-.08H29.4l-.11,0s0,0,0,0a.05.05,0,0,0,0,0,.15.15,0,0,0,.08,0h.15l.11,0a.48.48,0,0,1,.16.07.22.22,0,0,1,.09.1.4.4,0,0,1,0,.17V14a.71.71,0,0,1,0,.16v2.17Zm.88-1.21V13.83a.15.15,0,0,1,0-.08.18.18,0,0,1,.07-.05l.09,0h.31l.42,0a2.61,2.61,0,0,1,.46.08,2.34,2.34,0,0,1,.48.18,2.3,2.3,0,0,1,.47.32,2.61,2.61,0,0,1,.22.24,1.9,1.9,0,0,1,.19.35,2.52,2.52,0,0,1,.15.44,3.12,3.12,0,0,1,0,.55,4,4,0,0,1,0,.62,1.89,1.89,0,0,1-.17.54,1.49,1.49,0,0,1-.34.41,1.66,1.66,0,0,1-.41.26,1.81,1.81,0,0,1-.47.13,2.41,2.41,0,0,1-.55,0,1.8,1.8,0,0,1-.43,0,.84.84,0,0,1-.28-.09.35.35,0,0,1-.14-.12.23.23,0,0,1,0-.11l0-.17c0-.06,0-.11,0-.17s0-.12,0-.24V15.07Z"/><path class="cls-1" d="M26.13,16.28v1c0,.13,0,.25,0,.34a.6.6,0,0,1-.05.22.18.18,0,0,1-.14.11l-.1,0h-.13s-.07,0-.08,0,0,0,0,0a.05.05,0,0,0,0,.05l.09,0h1.59l.54,0h.66a1.18,1.18,0,0,0,.19,0l.11,0a.33.33,0,0,0,.05-.12,1.06,1.06,0,0,0,0-.14l0-.2a1.65,1.65,0,0,0,0-.21.86.86,0,0,0,0-.15.31.31,0,0,0,0-.1,0,0,0,0,0-.05-.05s0,0-.05,0,0,0,0,.07a.7.7,0,0,1-.1.3.37.37,0,0,1-.18.17l-.2,0-.22,0h-.2a2.53,2.53,0,0,1-.53,0,.43.43,0,0,1-.27-.16.62.62,0,0,1-.09-.33V15.8a.07.07,0,0,1,0-.05s0,0,0,0h1a.48.48,0,0,1,.19.05.36.36,0,0,1,.12.08.33.33,0,0,1,.05.12s0,.08,0,.12v.11s0,0,0,0l0,0a.05.05,0,0,0,.05,0s0,0,0-.05v-.13s0-.07,0-.11,0-.09,0-.13,0-.09,0-.12,0-.19,0-.25a1.13,1.13,0,0,1,0-.14v-.07a.09.09,0,0,0,0,0l0,0a.05.05,0,0,0,0,0l-.06.06a.23.23,0,0,1-.12.06.56.56,0,0,1-.2,0H27.06a.05.05,0,0,1,0,0,.09.09,0,0,1,0,0V13.76a.43.43,0,0,1,0,0h1.06a.73.73,0,0,1,.25,0,.22.22,0,0,1,.12.07l.07.11a.19.19,0,0,1,0,.08s0,.06,0,.09v.06a.13.13,0,0,0,0,.06l0,0,0,0,0,0v0a.34.34,0,0,1,0-.09s0-.08,0-.12a.53.53,0,0,1,0-.13v-.08c0-.1,0-.17,0-.23l0-.12a.35.35,0,0,1,0-.06s0,0,0,0l0,0h-.05l-.05,0-.12,0-.16,0H25.62l-.11,0s0,0,0,0a.05.05,0,0,0,0,0l.08,0h.15l.11,0a.54.54,0,0,1,.17.07.2.2,0,0,1,.08.1.61.61,0,0,1,0,.17v2.46Z"/><path class="cls-1" d="M23.09,15.36a.08.08,0,0,1,0-.06s0,0,0,0h1.1a.53.53,0,0,1,.19.06.4.4,0,0,1,.12.1l.07.11,0,.13a.38.38,0,0,1,0,.1.14.14,0,0,0,0,.07s0,0,0,0,.06,0,.07-.05,0-.06,0-.1v-.08a.86.86,0,0,1,0-.15v-.17s0-.1,0-.14,0-.22,0-.3a.64.64,0,0,0,0-.16s0-.07,0-.07l-.05,0-.05.06a.32.32,0,0,1-.13.1.54.54,0,0,1-.19,0H23.15a.06.06,0,0,1,0,0,.43.43,0,0,1,0-.05V13a.2.2,0,0,1,0-.09l.05,0,1.15,0a.88.88,0,0,1,.24,0,.48.48,0,0,1,.16.09.28.28,0,0,1,.09.1.94.94,0,0,1,0,.16v.12a.64.64,0,0,0,0,.09.06.06,0,0,0,.06,0,.05.05,0,0,0,0,0,.14.14,0,0,0,0-.07.41.41,0,0,0,0-.12,1.15,1.15,0,0,0,0-.19A1.21,1.21,0,0,0,25,13a.68.68,0,0,0,0-.12,1.09,1.09,0,0,1,0-.22.89.89,0,0,0,0-.11.08.08,0,0,0,0-.05l0,0-.06,0-.06,0-.13,0H21.57l-.12,0a.06.06,0,0,0-.05.06s0,0,0,0l.09,0h.16l.13,0a.69.69,0,0,1,.19.07.36.36,0,0,1,.1.14,1.18,1.18,0,0,1,0,.21v.61c0,.1,0,.24,0,.39V16c0,.36,0,.67,0,.94a5.55,5.55,0,0,1,0,.65,1.06,1.06,0,0,1,0,.19.26.26,0,0,1-.06.14.2.2,0,0,1-.12.08l-.11,0h-.24a.05.05,0,0,0,0,0,.07.07,0,0,0,0,.06l.12,0h2.08l.12,0a.05.05,0,0,0,0-.06.05.05,0,0,0,0,0h-.47a.3.3,0,0,1-.17-.08.22.22,0,0,1-.08-.14,1.06,1.06,0,0,1,0-.19,5.55,5.55,0,0,1,0-.65c0-.27,0-.58,0-.94Z"/><path class="cls-1" d="M22.07,8.12a3.94,3.94,0,0,0,.09.91,2,2,0,0,0,.23.64,1.6,1.6,0,0,0,.34.42,1.91,1.91,0,0,0,.43.29,2,2,0,0,0,.45.15l.42.06a2.16,2.16,0,0,0,.35,0,2.85,2.85,0,0,0,.5,0,2.21,2.21,0,0,0,.52-.16,2.25,2.25,0,0,0,.53-.34,1.78,1.78,0,0,0,.37-.46,2.18,2.18,0,0,0,.22-.55,4.08,4.08,0,0,0,.09-.61c0-.21,0-.41,0-.62V5.6a.71.71,0,0,0,0-.14.73.73,0,0,1,.07-.3A.29.29,0,0,1,26.93,5L27,5h.2a.07.07,0,0,0,0-.06.07.07,0,0,0,0-.05H25.42a.2.2,0,0,0-.12,0,.05.05,0,0,0,0,.05.06.06,0,0,0,0,.06h.36a.42.42,0,0,1,.19.08.26.26,0,0,1,.1.13.69.69,0,0,1,0,.22.61.61,0,0,1,0,.14,1.34,1.34,0,0,0,0,.19V8c0,.2,0,.38,0,.56s0,.34-.05.5a1.8,1.8,0,0,1-.13.43,1.13,1.13,0,0,1-.24.36,1,1,0,0,1-.33.23,1.25,1.25,0,0,1-.35.13,1.45,1.45,0,0,1-.35,0l-.28,0a1.36,1.36,0,0,1-.32-.08,1.21,1.21,0,0,1-.33-.21,1.2,1.2,0,0,1-.24-.26,1.11,1.11,0,0,1-.19-.36,2.81,2.81,0,0,1-.11-.51,4.72,4.72,0,0,1,0-.7V5.79c0-.07,0-.14,0-.19V5.46a.73.73,0,0,1,.07-.3A.29.29,0,0,1,23.31,5l.11,0h.19a.06.06,0,0,0,0-.06.05.05,0,0,0,0-.05H21.48a.2.2,0,0,0-.12,0,.05.05,0,0,0,0,.05.06.06,0,0,0,0,.06h.25l.13,0a.42.42,0,0,1,.19.08.26.26,0,0,1,.1.13.69.69,0,0,1,0,.22v.33c0,.07,0,.16,0,.27V8.12Z"/><path class="cls-2" d="M4.3,5.42a8.53,8.53,0,0,1,2,0c.11,0,.1,0,.1-.13a6.7,6.7,0,0,0-1.1-.07,7.07,7.07,0,0,0-1.13.07c0,.09,0,.14.11.13m-.18-1a7.19,7.19,0,0,1,2.39,0,.39.39,0,0,1,0,.74,6.74,6.74,0,0,0-1.19-.09,6.78,6.78,0,0,0-1.2.09A.39.39,0,0,1,4.12,4.46Zm2-.16,0,0a3.88,3.88,0,0,0-1.52,0l0,.07a7.38,7.38,0,0,1,.82,0A7,7,0,0,1,6.11,4.3ZM5.32,22a.24.24,0,1,1,0,.47.24.24,0,1,1,0-.47Zm-.92-.56c.49,0,.38,0,.67.33l.07,0A1.23,1.23,0,0,1,5,21.43a.37.37,0,0,1,.29-.2.37.37,0,0,1,.28.2,1.23,1.23,0,0,1-.11.34l.07,0c.29-.29.19-.34.67-.33,0,.23-.25.17-.36.35s0,.3-.08.37l-.07,0a.39.39,0,0,0-.4-.31.37.37,0,0,0-.4.31l-.08,0c-.09-.07,0-.24-.08-.37S4.41,21.71,4.4,21.48Zm8,.56a.24.24,0,1,1,0,.47.24.24,0,1,1,0-.47Zm-.91-.56c.48,0,.38,0,.67.33l.07,0a1,1,0,0,1-.11-.34.37.37,0,0,1,.28-.2.39.39,0,0,1,.29.2,1.23,1.23,0,0,1-.11.34l.07,0c.29-.29.18-.34.67-.33,0,.23-.25.17-.36.35s0,.3-.08.37a.2.2,0,0,1-.08,0,.37.37,0,0,0-.4-.31.39.39,0,0,0-.4.31l-.07,0c-.09-.07,0-.24-.08-.37S11.48,21.71,11.47,21.48Zm-.1-16.06a8.45,8.45,0,0,1,2,0c.12,0,.11,0,.11-.13a6.9,6.9,0,0,0-1.11-.07,7,7,0,0,0-1.12.07C11.26,5.38,11.25,5.43,11.37,5.42Zm-.18-1a6.91,6.91,0,0,1,1.19-.1,7,7,0,0,1,1.2.1.39.39,0,0,1,0,.74,6.85,6.85,0,0,0-1.2-.09,6.74,6.74,0,0,0-1.19.09A.39.39,0,0,1,11.19,4.46Zm2-.16,0,0a3.89,3.89,0,0,0-1.52,0l-.06.07a7.63,7.63,0,0,1,.82,0A7,7,0,0,1,13.18,4.3ZM8.86,22.4a.27.27,0,0,1,.28.24.26.26,0,0,1-.28.23.26.26,0,0,1-.29-.23A.27.27,0,0,1,8.86,22.4Zm-.92-.55c.49,0,.38,0,.67.33l.07-.05a1.13,1.13,0,0,1-.11-.34.39.39,0,0,1,.29-.2.4.4,0,0,1,.28.2,1.13,1.13,0,0,1-.11.34l.07.05c.29-.3.18-.34.67-.33,0,.22-.25.16-.36.35s0,.29-.08.37l-.07,0a.4.4,0,0,0-.4-.31.38.38,0,0,0-.4.31l-.08,0c-.09-.08,0-.25-.08-.37S8,22.07,7.94,21.85ZM7.84,5.42a8.53,8.53,0,0,1,2,0c.11,0,.1,0,.1-.13a6.7,6.7,0,0,0-1.1-.07,7.07,7.07,0,0,0-1.13.07C7.73,5.38,7.72,5.43,7.84,5.42Zm-.18-1a7.19,7.19,0,0,1,2.39,0,.39.39,0,0,1,0,.74,6.74,6.74,0,0,0-1.19-.09,6.78,6.78,0,0,0-1.2.09A.39.39,0,0,1,7.66,4.46Zm2-.16,0,0a3.88,3.88,0,0,0-1.52,0L8,4.3a7.38,7.38,0,0,1,.82,0A7,7,0,0,1,9.65,4.3ZM2.53,14.12a4,4,0,0,0,0-2.75c-.07-.12-.06,0-.06,0a5.76,5.76,0,0,1-.67,2,2.85,2.85,0,0,0-1-1.17c-.15-.11-.12-.11-.06,0C1.4,14.1-.49,16.64.5,16.63c.25,0,.32-.46.35-1,0-.32,0-1.14.35-1.38a.39.39,0,0,1,.21-.06h.13l.94-.08h0ZM1.24,15.31h0l0-.85h0v0h0s0,.08,0,.13h0l0,.14h0v0H1a1,1,0,0,0,0,.17H1c0,.09,0,.19,0,.27H1v0H1a2,2,0,0,0,0,.23,3.61,3.61,0,0,1-.08.65.76.76,0,0,1-.16.34l.74.06A5.78,5.78,0,0,1,1.24,15.31Zm13.94-1.19a4,4,0,0,1,0-2.75c.07-.12.06,0,.06,0a5.76,5.76,0,0,0,.67,2,2.85,2.85,0,0,1,1-1.17c.15-.11.12-.11.06,0-.69,1.78,1.2,4.32.22,4.31-.26,0-.33-.46-.36-1,0-.32,0-1.14-.35-1.38a.39.39,0,0,0-.21-.06h-.13l-.94-.08h-.05Zm1.29,1.19h0l0-.85h0v0h0s0,.08.05.13h0l0,.14h0v0h0a1,1,0,0,1,0,.17h0c0,.09,0,.19,0,.27h0v0h0a2,2,0,0,1,0,.23,3.61,3.61,0,0,0,.08.65.76.76,0,0,0,.16.34l-.74.06A5.78,5.78,0,0,0,16.47,15.31ZM9.33,21h0Zm-.42,0v.38a.75.75,0,0,1,.18.07v-.45h.1v.52l.1.14v0h0v0l0-.65H8.91Zm-.68,0h.13l0,.65v0h0v0a.62.62,0,0,1,.09-.12v-.54h.12v.45a.62.62,0,0,1,.19-.07v-.38H8.23ZM13,20.32l0,0Zm-.08,0,.06,0Zm-.16.06,0,.8a.64.64,0,0,1,.1.13v0h0l0-1h0Zm-.06,0,.05,0Zm-.24.08v.54a.62.62,0,0,1,.19.07v-.68h0Zm-.76.22.2-.05,0,.66h0v0a.5.5,0,0,1,.08-.12v-.57l.12,0v.51a.48.48,0,0,1,.18-.07v-.5l.1,0A5.92,5.92,0,0,1,11.68,20.75Zm-5.81,0,.06,0Zm-.23-.06h0l0,.56h0a.64.64,0,0,1,.1.13v0h0l0-.67.06,0Zm-.06,0,0,0Zm-.25-.08,0,0v.5h0a.41.41,0,0,1,.19.08h0v-.51Zm0,0h0ZM5,20.45h0v.68a.56.56,0,0,1,.18-.07v-.54Zm-.07,0,0,0Zm-.16-.06,0,1h0v0L5,21.23v-.82Zm-.07,0,.07,0Zm-.06,0,.06,0ZM15.2,15.93h0a.19.19,0,0,0,0-.15A.2.2,0,0,0,15,15.7a.23.23,0,0,0-.14,0,.2.2,0,0,0-.06.12h0v0h.07l.1,0Zm.1-.21.28-.08.28-.09h0a.31.31,0,0,1,0,.08s0,0,0,0,0,0,0,.05a.15.15,0,0,1,0,.07h0l-.22,0L15.3,16l.18,0,.15,0,.14,0h0s0,0,0,.06a.09.09,0,0,1,0,0v0a.15.15,0,0,0,0,.07h0l-.2-.05-.26-.05h0l-.29-.06-.23,0h0a.29.29,0,0,0,0-.09.5.5,0,0,0,0-.12s0-.09,0-.13a.29.29,0,0,1,.11-.2.32.32,0,0,1,.22,0,.32.32,0,0,1,.17.09A.27.27,0,0,1,15.3,15.72Zm-.42,1.39a.6.6,0,0,0,.32.07.2.2,0,0,0,.14-.34.77.77,0,0,0-.59-.25.2.2,0,0,0-.18.12.25.25,0,0,0,0,.22A.75.75,0,0,0,14.88,17.11Zm-.08.23a.59.59,0,0,1-.33-.29.48.48,0,0,1,0-.39.45.45,0,0,1,.27-.27.55.55,0,0,1,.4,0,.65.65,0,0,1,.34.29.51.51,0,0,1-.27.67A.58.58,0,0,1,14.8,17.34Zm-.75.11,0-.06,0,0,0,0a.43.43,0,0,0,0-.07h0l.19.15.23.17.05,0,.2.14.18.12h0l0,.06a.08.08,0,0,0,0,0v0a.25.25,0,0,0,0,.07h0l-.18-.15-.24-.17-.22-.16-.21-.14h0Zm-.18.42.06.06L14,18l0,.05c.1.09.19.19.29.29l.17.16h0l-.06.06,0,0,0,0a.12.12,0,0,0-.05.05h0l-.15-.17L14,18.3l-.13-.12L13.71,18l-.08.08-.07.09h0l-.05-.06,0,0,0,0h0l.16-.14.09-.09.09-.08.15-.16h0l0,0,0,0,0,0,0,0h0l-.09.07Zm-.61.93h0a.23.23,0,0,0,.1-.12.29.29,0,0,0,0-.16s-.06-.08-.11-.09a.21.21,0,0,0-.13,0h0l0,.07.06.08Zm.22-.07.25.15L14,19h0l-.07,0-.05,0,0,0-.06,0h0L13.57,19a2.26,2.26,0,0,0-.26-.16l.1.16.08.13.08.11h0l-.06,0,0,0,0,0,0,0h0l-.1-.18c0-.08-.09-.15-.13-.22l0-.05L13,18.7l-.14-.19h0l.07,0,.1-.07.11-.07a.29.29,0,0,1,.22-.06.26.26,0,0,1,.17.14.24.24,0,0,1,.05.18A.21.21,0,0,1,13.48,18.73Zm-1.32.65a.64.64,0,0,0,.18.28.2.2,0,0,0,.21,0,.19.19,0,0,0,.13-.17.62.62,0,0,0,0-.33.75.75,0,0,0-.18-.28.2.2,0,0,0-.21,0,.19.19,0,0,0-.13.17A.62.62,0,0,0,12.16,19.38Zm-.22.1a.61.61,0,0,1,0-.44.51.51,0,0,1,.67-.26.56.56,0,0,1,.25.31.67.67,0,0,1,0,.44.47.47,0,0,1-.29.28.46.46,0,0,1-.38,0A.55.55,0,0,1,11.94,19.48Zm-.61-.26a.29.29,0,0,0,0,.09.69.69,0,0,0,0,.13l0,.07.11,0,.15,0h0v0a.11.11,0,0,0,0,.05,0,0,0,0,0,0,0v0h0l-.14,0-.13,0,.06.28,0,.11,0,.09h-.18l-.06,0h0l0-.18a2,2,0,0,0,0-.24l0-.16-.06-.27c0-.06,0-.12,0-.18h0l.17,0h.07l.11,0,.15,0h0v.1l0,0H11.5l-.1,0h-.07Zm-1.49.72h.1l.09,0h0a.88.88,0,0,0,0-.15,1,1,0,0,0-.07-.15l0,.17A.83.83,0,0,0,9.84,19.94Zm.24.12H9.82l-.06.29H9.62c.05-.18.09-.36.14-.55l.12-.54H10l.21.53c.07.17.14.34.22.5h-.26l0-.14A.58.58,0,0,0,10.08,20.06Zm-1.94.33a1.94,1.94,0,0,1,0-.24c0-.09,0-.19,0-.29s0-.18,0-.27a2,2,0,0,0,0-.25h.25c0,.08,0,.16,0,.24a2.81,2.81,0,0,0,0,.29v.52H8.14ZM7.62,20l0-.28a1.49,1.49,0,0,0,0-.21c0-.06,0-.12,0-.18h.14a1.7,1.7,0,0,0,0,.22c0,.14,0,.28,0,.42V20a1.1,1.1,0,0,0,0,.18c0,.05,0,.09,0,.14H7.55L7.34,20a3.35,3.35,0,0,0-.21-.36l0,.41s0,.08,0,.12a.76.76,0,0,0,0,.15H6.93L7,20a2.7,2.7,0,0,0,0-.28c0-.08,0-.16,0-.24s0-.19,0-.29h.17l.2.37C7.48,19.73,7.54,19.84,7.62,20ZM6.33,19.8l.26-.48a.59.59,0,0,0,0-.08.36.36,0,0,0,0-.09h.16l-.08.12-.07.11-.28.49L6.34,20a.75.75,0,0,0-.06.13H6.13a2.28,2.28,0,0,0,0-.26h0L6,19H6l.08,0h.17v.2Zm-.91-1-.07.08L5.29,19h0a.22.22,0,0,0,0-.14.15.15,0,0,0-.08-.08.14.14,0,0,0-.11,0,.12.12,0,0,0-.07.07c0,.07,0,.16.07.21l0,0a.65.65,0,0,1,.11.22.33.33,0,0,1,0,.17.34.34,0,0,1-.19.2.39.39,0,0,1-.28,0,.41.41,0,0,1-.11-.07.27.27,0,0,1-.08-.07h0l.06-.09.08-.12h0l0,0h0a.29.29,0,0,0,0,.16.18.18,0,0,0,.1.09.14.14,0,0,0,.11,0A.13.13,0,0,0,5,19.46a.1.1,0,0,0,0-.09.64.64,0,0,0-.08-.14A.94.94,0,0,1,4.77,19a.38.38,0,0,1,0-.18A.32.32,0,0,1,5,18.65a.33.33,0,0,1,.26,0l.1.07a.24.24,0,0,1,.08.09Zm-1.27.05.42-.35.07-.06.07-.07h0l0,0,0,0h0l0,0h0l-.12.08-.1.08L4.18,19l-.1.09L4,19.16H4l0,0,0,0,0,0,0,0h0c0-.08,0-.16.08-.24v0l.23-.8h0l.06.05,0,0,0,0,.07,0h0l0,.09,0,.09Zm-.27-1L3.81,18l-.09.08,0,.05a3.83,3.83,0,0,0-.29.28l-.16.17h0l-.05-.06,0,0,0,0-.06-.05h0l.17-.15a2.09,2.09,0,0,0,.22-.2l.13-.12.15-.16-.08-.07-.09-.07h0l0-.05,0,0,0,0h0a1.07,1.07,0,0,1,.14.16l.09.09a.6.6,0,0,1,.08.08l.16.15h0l0,0h0l0,0,0,0H4L4,18ZM3,17.28H3s.06.09.12.1a.2.2,0,0,0,.15,0,.24.24,0,0,0,.1-.1.19.19,0,0,0,0-.13h0v0l-.06,0-.08.05Zm.07.22-.16.26L2.75,18h0a.3.3,0,0,1,0-.08l0,0,0-.05,0-.06h0l.13-.18.16-.26-.16.09-.13.08-.11.08h0l0-.06a.05.05,0,0,0,0,0s0,0,0,0l0-.05h0l.19-.1.22-.13,0,0L3.09,17l.19-.13h0l0,.07L3.4,17l.07.11a.28.28,0,0,1,0,.22.29.29,0,0,1-.14.17.3.3,0,0,1-.18,0A.16.16,0,0,1,3.06,17.5Zm-.94-.75.22-.07.27-.1.26-.1.23-.1h0s0,.05,0,.08,0,0,0,0,0,0,0,0a.16.16,0,0,0,0,.07h0L3,16.68l-.27.1-.06,0-.23.09L2.2,17h0l0-.07,0-.05v0l0-.07h0Zm6.74,4.1a8.8,8.8,0,0,0,5.37-1.48,5.32,5.32,0,0,0,2.11-4.09l0-.84c0-.08,0-.09,0-.09h-.05l-1.78-.15c-.1,0-.09,0-.09.09l0,.92A3.35,3.35,0,0,1,13,17.81a6.89,6.89,0,0,1-4.18,1.07v.47h.57v.14H9.21s0,.06,0,.09v.19c0,.13,0,.27,0,.4a1.93,1.93,0,0,0,0,.24H9c0-.08,0-.15,0-.23v-.69H8.86v1.36a8.81,8.81,0,0,1-5.38-1.48,5.32,5.32,0,0,1-2.11-4.09l0-.84c0-.08,0-.09,0-.09h0l1.78-.15c.1,0,.09,0,.09.09l0,.92a3.37,3.37,0,0,0,1.34,2.61,6.89,6.89,0,0,0,4.18,1.07v.47h-.1v0s0,0,0,0,0,0,0,.07h.1ZM2.29,16l.55,0H3v.1l0,0h0l-.14,0-.13,0-.55-.07H2V16s0,0,0,0h0l.22-.11h0l.73-.4h0s0,.06,0,.08a.43.43,0,0,0,0,.05v0a.19.19,0,0,0,0,.07H3l-.1,0-.08,0Zm9.18-9.68.21,0h0V5.83a.15.15,0,0,1,.15-.14.15.15,0,0,1,.15.1h0a.15.15,0,0,0-.15.14v.44l.45,0h0V5.83a.14.14,0,0,1,.15-.14.15.15,0,0,1,.14.1h0a.14.14,0,0,0-.15.14v.49l.44,0V5.83A.15.15,0,0,1,13,5.69a.13.13,0,0,1,.14.1h0a.15.15,0,0,0-.15.14v.55l.37,0,0-1a8.17,8.17,0,0,0-1.85,0l0,.83ZM7.94,6.26h.21V5.83a.15.15,0,0,1,.15-.14.15.15,0,0,1,.15.1h0a.15.15,0,0,0-.15.14v.33h.45V5.83a.15.15,0,0,1,.15-.14.13.13,0,0,1,.14.1H9a.15.15,0,0,0-.15.14v.32h.45V5.83a.15.15,0,0,1,.15-.14.15.15,0,0,1,.15.1h0a.15.15,0,0,0-.15.14v.33h.37l0-.75a8.17,8.17,0,0,0-1.85,0Zm-3.53.26.21,0h0l0-.67a.15.15,0,0,1,.15-.14.15.15,0,0,1,.15.1h0a.15.15,0,0,0-.15.14l0,.56h0l.44,0h0V5.83a.15.15,0,0,1,.15-.14.13.13,0,0,1,.14.1h0a.15.15,0,0,0-.15.14v.5l.45,0V5.83a.15.15,0,0,1,.15-.14.15.15,0,0,1,.15.1H6a.15.15,0,0,0-.15.14v.45l.37,0h0l0-.83a8.26,8.26,0,0,0-1.86,0ZM12.8,17.24v.5l.13-.09,0,0,0-.54Zm-.37.27V18l.23-.14v-.48Zm-.34.19v.43l.21-.1v-.45Zm-.29.12v.43h0l.15-.06v-.43Zm-2.18.45v.39a7.64,7.64,0,0,0,2-.35h0V17.9A7.79,7.79,0,0,1,9.62,18.27Zm-.36,0v.4H9.4v-.39Zm-.36,0v.39h.22v-.39Zm-.32,0v.39h.2v-.39Zm-.3,0,0,.39h.14v-.4Zm-2.19-.39v.42a8,8,0,0,0,2,.35h0v-.4A7.07,7.07,0,0,1,6.09,17.89Zm-.36-.15v.44h0l.18.07h0v-.42Zm-.12,0,.1,0Zm-.25-.14V18l.23.11v-.44ZM5,17.32v.49H5l.25.15h0v-.46c-.07-.05-.14-.09-.21-.15Zm-.3-.26,0,.53.06.06.11.07h0V17.2ZM13.54,1.91c-.22.16-.51.24-.66.45a.78.78,0,0,0-.07.64h0a1.94,1.94,0,0,1,0-.24c.08-.27.31-.35.48-.55a2.65,2.65,0,0,0,.21-.26Zm-1.18.15h0a1.68,1.68,0,0,0-.44.57h0A.47.47,0,0,0,12,2.56a1,1,0,0,0,.34-.49Zm-.73.77a1.13,1.13,0,0,0-.11-.34,1.51,1.51,0,0,1-.12.38.62.62,0,0,0-.05.46s0,0,0,.08A.8.8,0,0,1,11.45,3h0A.7.7,0,0,1,11.63,2.83Zm2.08-1.18c-.18.32-.66.38-.88.68a1,1,0,0,0,0,.95v0a3.42,3.42,0,0,1,0-.46c.07-.26.28-.33.46-.53s.14-.18.22-.26l.06-.1A.69.69,0,0,0,13.71,1.65ZM12.61,4h.12a1.32,1.32,0,0,0,.2-.12c.42-.3.64-.68.29-1.06A1.59,1.59,0,0,1,12.61,4ZM12,4h.18a1.37,1.37,0,0,0,.25-.23.91.91,0,0,0,.19-.5,1.28,1.28,0,0,0-.08-.58c-.06-.16-.1-.21,0-.38a1.7,1.7,0,0,1,.26-.43h0a1.2,1.2,0,0,0,.3-.58.53.53,0,0,0,0-.13,1.39,1.39,0,0,1-.29.51l-.14.13L12.48,2V2.1a1.43,1.43,0,0,1-.06.35.87.87,0,0,1-.31.4,1.23,1.23,0,0,0-.26.34.52.52,0,0,0,0,.21.91.91,0,0,0,0,.23L12,4Zm-.05,0h0l-.21-.34a.41.41,0,0,1-.05-.09,1,1,0,0,1-.1-.27.78.78,0,0,0,0,.22V3.7A1.24,1.24,0,0,0,11.8,4Zm-.35.06a.72.72,0,0,1,.21,0,.06.06,0,0,1,0,0,1.37,1.37,0,0,1-.47-.65.67.67,0,0,1,.06-.5,1.36,1.36,0,0,0,.13-.6,2.1,2.1,0,0,1,.21.6.76.76,0,0,0-.19.21.8.8,0,0,0,0,.59V3.54a.56.56,0,0,1,.16-.4.69.69,0,0,0,.09.42.41.41,0,0,0,0,.09.81.81,0,0,1,0-.25.56.56,0,0,1,0-.23.81.81,0,0,1,.28-.36.87.87,0,0,0,.34-.72,1.2,1.2,0,0,1-.35.52L12,2.67l-.16.11A1.86,1.86,0,0,1,12.32,2c.09-.07.17-.16.25-.23l.14-.13a1.53,1.53,0,0,0,.36-.81,1.15,1.15,0,0,1-.29,1.08,1.71,1.71,0,0,0-.26.42c-.06.16,0,.19,0,.34a1.44,1.44,0,0,1,.08.61.94.94,0,0,1-.4.71h.27a1.47,1.47,0,0,0,.64-1.33c.62.52.18,1-.32,1.34h.07a.73.73,0,0,1,.31.07c.53-.33.88-.81.44-1.33a.18.18,0,0,1-.05-.17,4.73,4.73,0,0,1,.23-.53,1,1,0,0,0,0-.93.74.74,0,0,1-.38.55,4.24,4.24,0,0,0-.4.31c0-.14.16-.3.24-.4a.33.33,0,0,1,0-.24c0-.22.17-.36.17-.59a1.12,1.12,0,0,0-.32-.63,1,1,0,0,1-.52,1.05,1.85,1.85,0,0,0-.44.31,2.19,2.19,0,0,0-.52.86.6.6,0,0,0-.16-.44,1,1,0,0,1-.3.66L11,2.76a.5.5,0,0,0-.16.38.54.54,0,0,0,.15.33l.07.11A3.37,3.37,0,0,0,11.56,4.09ZM10,1.91c-.22.16-.51.24-.66.45A.82.82,0,0,0,9.3,3h0a2,2,0,0,1,0-.24c.08-.27.31-.35.48-.55A2.65,2.65,0,0,0,10,1.94Zm-1.18.15h0a1.56,1.56,0,0,0-.44.57h0a.33.33,0,0,0,.1-.06,1,1,0,0,0,.34-.49Zm-.73.77A1.13,1.13,0,0,0,8,2.49a1.51,1.51,0,0,1-.12.38.62.62,0,0,0-.05.46.24.24,0,0,0,0,.08A.94.94,0,0,1,7.94,3H8A.7.7,0,0,1,8.13,2.83Zm2.08-1.18C10,2,9.55,2,9.33,2.33a1,1,0,0,0,0,.95v0a3.42,3.42,0,0,1,0-.46c.07-.26.28-.33.46-.53L10.06,2a.61.61,0,0,0,.07-.1A.69.69,0,0,0,10.21,1.65ZM9.1,4h.13l.2-.13c.41-.3.64-.68.29-1.06A1.56,1.56,0,0,1,9.1,4ZM8.46,4h.18a1.37,1.37,0,0,0,.25-.23.91.91,0,0,0,.19-.5A1.28,1.28,0,0,0,9,2.71c-.06-.16-.1-.21,0-.38a1.7,1.7,0,0,1,.26-.43h0a1.29,1.29,0,0,0,.3-.58.53.53,0,0,0,0-.13,1.39,1.39,0,0,1-.29.51l-.14.13L9,2V2.1a1.43,1.43,0,0,1-.06.35.87.87,0,0,1-.31.4.94.94,0,0,0-.26.34.52.52,0,0,0,0,.21.91.91,0,0,0,0,.23L8.45,4ZM8.4,4h0l-.2-.34a.41.41,0,0,1-.05-.09,1,1,0,0,1-.1-.27.54.54,0,0,0,0,.22V3.7A1.24,1.24,0,0,0,8.3,4ZM8,4.09a.54.54,0,0,1,.22,0V4a1.37,1.37,0,0,1-.47-.65.67.67,0,0,1,.06-.5A1.36,1.36,0,0,0,8,2.25a2.1,2.1,0,0,1,.21.6A.76.76,0,0,0,8,3.06a.76.76,0,0,0,0,.59V3.54a.56.56,0,0,1,.16-.4.69.69,0,0,0,.09.42.41.41,0,0,0,0,.09.81.81,0,0,1,0-.25.56.56,0,0,1,0-.23.81.81,0,0,1,.28-.36.87.87,0,0,0,.34-.72,1.2,1.2,0,0,1-.35.52l-.11.06-.16.11A1.77,1.77,0,0,1,8.82,2c.09-.07.16-.16.25-.23a1.58,1.58,0,0,0,.13-.13A1.48,1.48,0,0,0,9.57.85a1.15,1.15,0,0,1-.29,1.08A1.71,1.71,0,0,0,9,2.35c-.06.16,0,.19,0,.34a1.44,1.44,0,0,1,.08.61.94.94,0,0,1-.4.71H9a1.47,1.47,0,0,0,.64-1.33c.62.52.17,1-.32,1.34h0a.74.74,0,0,1,.32.07c.53-.33.89-.81.44-1.33a.25.25,0,0,1-.05-.17,3.49,3.49,0,0,1,.24-.53,1.08,1.08,0,0,0,0-.93.78.78,0,0,1-.39.55,4.24,4.24,0,0,0-.4.31c0-.14.16-.3.25-.4a.39.39,0,0,1,0-.24c0-.22.18-.36.17-.59A1.12,1.12,0,0,0,9.59.15,1,1,0,0,1,9.08,1.2a1.72,1.72,0,0,0-.45.31,2.31,2.31,0,0,0-.52.86A.6.6,0,0,0,8,1.93a1,1,0,0,1-.3.66l-.16.17a.5.5,0,0,0-.16.38.68.68,0,0,0,.15.33,1,1,0,0,0,.08.11A3.3,3.3,0,0,0,8,4.09ZM6.48,1.91c-.22.16-.51.24-.66.45A.82.82,0,0,0,5.74,3h0a2,2,0,0,1,0-.24c.08-.27.31-.35.48-.55l.21-.26ZM5.3,2.06h0a1.68,1.68,0,0,0-.44.57h0A.33.33,0,0,0,5,2.56a1.12,1.12,0,0,0,.34-.49Zm-.74.77a.9.9,0,0,0-.1-.34,2.07,2.07,0,0,1-.12.38.62.62,0,0,0-.06.46l0,.08A.94.94,0,0,1,4.38,3h0A.67.67,0,0,1,4.56,2.83ZM6.65,1.65C6.47,2,6,2,5.77,2.33a1,1,0,0,0,0,.95v0a2.32,2.32,0,0,1,0-.46c.07-.26.28-.33.46-.53L6.5,2a.61.61,0,0,0,.07-.1A1,1,0,0,0,6.65,1.65ZM5.54,4h.13a2.12,2.12,0,0,0,.2-.12c.41-.3.64-.68.29-1.06A1.6,1.6,0,0,1,5.54,4ZM4.9,4h.18a1.37,1.37,0,0,0,.25-.23.91.91,0,0,0,.19-.5,1.28,1.28,0,0,0-.08-.58c-.06-.16-.1-.21,0-.38a1.45,1.45,0,0,1,.26-.43h0A1.29,1.29,0,0,0,6,1.32s0-.08,0-.13a1.29,1.29,0,0,1-.3.51.8.8,0,0,1-.13.13L5.42,2V2.1a1.43,1.43,0,0,1-.06.35.94.94,0,0,1-.31.4.94.94,0,0,0-.26.34.8.8,0,0,0,0,.21.93.93,0,0,0,0,.23L4.88,4ZM4.84,4h0l-.21-.34a.41.41,0,0,0,0-.09,1.43,1.43,0,0,1-.09-.27.54.54,0,0,0,0,.22.21.21,0,0,0,0,.11V3.7A1.24,1.24,0,0,0,4.74,4Zm-.36.06A.79.79,0,0,1,4.7,4V4a1.31,1.31,0,0,1-.47-.65.63.63,0,0,1,.06-.5,1.36,1.36,0,0,0,.13-.6,2.11,2.11,0,0,1,.2.6.72.72,0,0,0-.18.21.76.76,0,0,0,0,.59V3.54a.56.56,0,0,1,.16-.4.69.69,0,0,0,.08.42.41.41,0,0,1,0,.09,1.21,1.21,0,0,1,0-.25.79.79,0,0,1,0-.23A1,1,0,0,1,5,2.81a.86.86,0,0,0,.35-.72A1.14,1.14,0,0,1,5,2.61l-.1.06-.17.11A1.87,1.87,0,0,1,5.26,2c.09-.07.16-.16.25-.23l.13-.13A1.48,1.48,0,0,0,6,.85a1.14,1.14,0,0,1-.3,1.08,1.66,1.66,0,0,0-.25.42c-.06.16,0,.19,0,.34a1.18,1.18,0,0,1,.08.61A.91.91,0,0,1,5.18,4h.27a1.46,1.46,0,0,0,.63-1.33c.62.52.18,1-.31,1.34h.06a.71.71,0,0,1,.31.06c.52-.32.87-.8.43-1.32a.18.18,0,0,1-.05-.17,4.73,4.73,0,0,1,.23-.53,1,1,0,0,0,0-.93.74.74,0,0,1-.38.55A4.24,4.24,0,0,0,6,2c0-.14.16-.3.24-.4a.33.33,0,0,1,0-.24c0-.22.17-.36.17-.59A1.12,1.12,0,0,0,6,.15,1,1,0,0,1,5.51,1.2a1.67,1.67,0,0,0-.44.31,2.19,2.19,0,0,0-.52.86.6.6,0,0,0-.16-.44,1,1,0,0,1-.3.66l-.16.17a.5.5,0,0,0-.16.38.54.54,0,0,0,.15.33L4,3.58A4,4,0,0,0,4.48,4.09Zm-.57,6.05.31-.27-.33-.36ZM11,17.86l0,0L10.34,17l-.48.41-1-1.2.48-.41L8.64,15l-.47.4-1-1.2.48-.4L7,13.05l-.48.41-1-1.2.48-.41-.67-.78-.48.41-.84-1,.2,4.68c.06,1.45,1.09,2.92,4.73,2.92A9.4,9.4,0,0,0,11,17.86Zm2.6-3.65-.32.27.29.35ZM6.5,6.53l.69.8.48-.4,1,1.2-.48.4.67.79.48-.41,1,1.2-.48.41.67.78.48-.41,1,1.2-.48.41.67.78.47-.41.88,1,.31-7.09A37.21,37.21,0,0,0,6.5,6.53Zm-2.73.28c.85-.12,1.68-.2,2.51-.26l.89,1,.48-.41.8.94L8,8.52l.89,1,.48-.41.8.94-.48.41.9,1,.48-.4.8.93-.48.41.8.93.1.12.48-.41.8.93-.48.41.52.61v.1a2.79,2.79,0,0,1-2.34,2.63l-.78-.91-.1-.12-.48.41-.8-.93.48-.41-.9-1.05.06,0-.54.46-.8-.94.48-.41-.89-1-.48.41-.8-.94.48-.41-.9-1-.48.4L4,10.3l.48-.41-.6-.7Zm6.52,9H10l-.22,0h0a.08.08,0,0,1-.06-.08s0-.06.07-.07h0l.22,0,.27,0-.12,0-.28-.07-.23-.08h0a.08.08,0,0,1-.05-.08.09.09,0,0,1,.08-.06h0l.23,0,.24,0h0l-.28-.11-.24-.11s-.06,0,0-.09a.08.08,0,0,1,.09-.05h0l.24.05.22,0-.24-.13-.23-.14s-.06-.06,0-.11a.05.05,0,0,1,0,0h.07a1.25,1.25,0,0,1,.25.09l.2.07L10,14.63a1.81,1.81,0,0,1-.21-.18s-.06-.06,0-.11a.1.1,0,0,1,.09,0h0a1.15,1.15,0,0,1,.25.12l.18.1-.16-.17-.2-.21a.09.09,0,0,1,0-.11A.08.08,0,0,1,10,14h0a1.67,1.67,0,0,1,.24.16l.22.17-.16-.22-.17-.25v0a.07.07,0,0,1,0-.09.06.06,0,0,1,.09,0h0a2.09,2.09,0,0,1,.22.2l.18.18L10.54,14a1.23,1.23,0,0,1-.12-.26h0v0h0a.08.08,0,0,1,0-.07c.05,0,.08,0,.11,0a2,2,0,0,1,.17.23l.14.18a1.07,1.07,0,0,1-.07-.19,2.76,2.76,0,0,1-.08-.27v0h0a.08.08,0,0,1,.05-.07c.06,0,.08,0,.1,0s.1.16.14.24l.12.22c0-.07,0-.14,0-.21s0-.18,0-.26v0h0a.09.09,0,0,1,.06-.07s.07,0,.09.05a2.72,2.72,0,0,1,.11.25l.09.26c0-.07,0-.15,0-.22a2.09,2.09,0,0,1,0-.25v0a.07.07,0,0,1,.06-.07s.07,0,.08.06a1.21,1.21,0,0,1,.08.25c0,.1,0,.2.07.3h0a1.62,1.62,0,0,1,0-.22,1.64,1.64,0,0,1,0-.23v0a.07.07,0,0,1,.07-.07.07.07,0,0,1,.07.06h0a2,2,0,0,1,0,.24,2.85,2.85,0,0,1,0,.29s0,.07,0,.11l.06-.26.06-.21h0a.06.06,0,0,1,.08-.05.06.06,0,0,1,.06.06v0a1.62,1.62,0,0,1,0,.22l0,.26v0l.07-.15.08-.16s.05-.07.1,0a.08.08,0,0,1,0,.07v0a.83.83,0,0,1,0,.22,1.25,1.25,0,0,1-.07.26h0l.09-.12.1-.11s.06-.05.1,0a.07.07,0,0,1,0,.07v0a1,1,0,0,1-.15.38l-.06.11.14-.1.1-.08a.08.08,0,0,1,.13.06v0a.93.93,0,0,1-.26.39l.2-.08h0a.11.11,0,0,1,.08,0,.09.09,0,0,1,0,.1,1,1,0,0,1-.95.42H11.8l.67.74a.09.09,0,0,1,0,.09s0,0-.06.05a.05.05,0,0,0,0,0,.06.06,0,0,1-.06.05.09.09,0,0,1-.08-.05l-.62-.77a.29.29,0,0,0,0,.09,1.15,1.15,0,0,1-.57.87.08.08,0,0,1-.1,0,.06.06,0,0,1,0-.08h0l.1-.17a1,1,0,0,1-.42.19h0a.08.08,0,0,1-.06,0s0-.07,0-.1a.34.34,0,0,1,.09-.08l.13-.12-.12,0a1.37,1.37,0,0,1-.4.09h0s-.06,0-.07-.06,0-.07,0-.09l.13-.08.13-.07h0l-.27,0H10A.11.11,0,0,1,9.89,16a.09.09,0,0,1,.06-.08h0l.17-.06Zm1.26-.05a1.06,1.06,0,0,1-.53.81s0,0,0,0l.23-.41h0a2,2,0,0,1-.6.33s0,0,0,0a3.5,3.5,0,0,0,.4-.39s0,0,0,0a2.29,2.29,0,0,1-.72.21s0,0,0,0,.42-.24.57-.33h0A3.07,3.07,0,0,1,10,16s0,0,0,0l.72-.21s0,0,0,0a4.54,4.54,0,0,1-.91-.06s0,0,0,0l.68-.07.17,0s0,0,0,0a5.11,5.11,0,0,1-1-.25h0l1,.08s0,0,0,0a8,8,0,0,1-1-.38s0,0,0,0c.23,0,.73.18,1,.24,0,0,0,0,0,0-.26-.14-.75-.38-1-.53h0a8.94,8.94,0,0,1,1,.41s0,0,0,0c-.25-.18-.72-.5-.91-.68,0,0,0,0,0,0a8.21,8.21,0,0,1,1,.55s0,0,0,0a8,8,0,0,1-.83-.81h0a7.93,7.93,0,0,1,.93.71h0a7.73,7.73,0,0,1-.71-.94s0,0,0,0a8.09,8.09,0,0,1,.82.83h0a9.45,9.45,0,0,1-.56-1s0,0,0,0c.19.2.49.69.68,1h0a7,7,0,0,1-.4-1.06s0,0,0,0c.15.22.39.72.53,1h0a8.29,8.29,0,0,1-.24-1.06s0,0,0,0a8.85,8.85,0,0,1,.37,1s0,0,0,0c0-.28-.09-.8-.09-1,0,0,0,0,0,0a7.79,7.79,0,0,1,.22,1s0,0,0,0c0-.26,0-.75.07-1,0,0,0,0,0,0a5.44,5.44,0,0,1,.09,1s0,0,0,0c.09-.25.18-.68.23-.82s0,0,0,0a4.56,4.56,0,0,1-.08.9h0c.09-.18.25-.55.33-.69s0,0,0,0a3,3,0,0,1-.21.8s0,0,0,0,.33-.43.41-.51,0,0,0,0a2.63,2.63,0,0,1-.32.68s0,0,0,0,.39-.3.45-.33,0,0,0,0-.28.4-.41.54,0,0,0,0l.44-.17s0,0,0,0a1,1,0,0,1-.89.39h0a1.53,1.53,0,0,0,.37-.16s0-.05,0,0a1.53,1.53,0,0,1-.37.16,1.22,1.22,0,0,0,.34-.34s0,0,0,0a1.37,1.37,0,0,1-.36.36,1.63,1.63,0,0,0,.3-.51s0,0,0,0a1.56,1.56,0,0,1-.29.5,1.85,1.85,0,0,0,.2-.6,0,0,0,1,0,0,0,2.49,2.49,0,0,1-.2.6,2.5,2.5,0,0,0,.09-.66,0,0,0,1,0,0,0,2,2,0,0,1-.08.63,2.44,2.44,0,0,0,0-.66s0,0,0,0a2,2,0,0,1,0,.64,2.44,2.44,0,0,0-.14-.65s0,0,0,0a2.82,2.82,0,0,1,.14.64,4.29,4.29,0,0,0-.23-.63s-.05,0,0,0a3.62,3.62,0,0,1,.22.63,3.77,3.77,0,0,0-.32-.59s0,0,0,0a5,5,0,0,1,.32.6c-.13-.19-.27-.37-.41-.55,0,0-.05,0,0,0,.14.18.28.36.41.55L11.07,15s-.05,0,0,0l.48.49a4.26,4.26,0,0,1-.54-.41s0,0,0,0a5.47,5.47,0,0,0,.54.41,3.37,3.37,0,0,1-.59-.32s0,0,0,0a4.19,4.19,0,0,0,.59.32,2.82,2.82,0,0,1-.61-.23s0,0,0,0a2.9,2.9,0,0,0,.62.23,2.21,2.21,0,0,1-.62-.13s0,0,0,0a2.1,2.1,0,0,0,.65.14,2,2,0,0,1-.64,0s0,0,0,0a1.83,1.83,0,0,0,.66,0,1.83,1.83,0,0,1-.61.11,0,0,0,1,0,0,0,1.88,1.88,0,0,0,.62-.11,1.44,1.44,0,0,1-.53.21s0,0,0,0a1.43,1.43,0,0,0,.54-.22,1.39,1.39,0,0,1-.41.31s0,0,0,0a1.33,1.33,0,0,0,.39-.28,1.46,1.46,0,0,1-.22.33s0,0,0,0a1.33,1.33,0,0,0,.22-.34Zm.11-.16.66.81s0,0,0,0a.11.11,0,0,1,.08-.07s0,0,0,0l-.7-.77S11.63,15.59,11.66,15.63ZM7.71,12.82H7.42l-.22,0h0a.08.08,0,0,1,0-.07.07.07,0,0,1,.06-.07h0l.21,0,.28,0-.12,0-.28-.07-.23-.08h0a.07.07,0,0,1,0-.08.08.08,0,0,1,.08-.06h0l.23,0,.24,0h0l-.29-.11L7,12.06S7,12,7,12a.09.09,0,0,1,.08-.05h0l.24.06.22,0-.25-.13c-.07-.05-.15-.09-.22-.15s-.07-.05,0-.1a.05.05,0,0,1,0,0h.06l.26.08.2.08-.21-.15-.22-.18a.08.08,0,0,1,0-.11.07.07,0,0,1,.08,0h0l.25.12.18.1-.17-.16-.19-.21s0-.07,0-.11a.07.07,0,0,1,.07,0h0l.24.16.21.17-.16-.21-.16-.25v0a.08.08,0,0,1,0-.1.09.09,0,0,1,.1,0l0,0c.07,0,.15.13.22.19l.18.19L8,11l-.12-.26v0h0v0a.07.07,0,0,1,0-.06s.08,0,.1,0a1.74,1.74,0,0,1,.18.22l.13.19a1.46,1.46,0,0,0-.07-.19,2.76,2.76,0,0,1-.08-.27v0a.08.08,0,0,1,.05-.07c.05,0,.07,0,.1.06a1.38,1.38,0,0,1,.14.24l.12.22a1.6,1.6,0,0,1,0-.21,2.56,2.56,0,0,1-.05-.27v0h0a.08.08,0,0,1,.05-.07c.06,0,.08,0,.1.06a1.86,1.86,0,0,1,.1.25,2.6,2.6,0,0,1,.1.25,1.49,1.49,0,0,1,0-.21c0-.09,0-.17,0-.25v0s0-.07.07-.07.07,0,.08.06a2.41,2.41,0,0,1,.08.25L9,11H9c0-.08,0-.15,0-.23s0-.15,0-.23h0a.07.07,0,0,1,.06-.07.08.08,0,0,1,.08.06h0a1,1,0,0,1,0,.24l0,.28a.49.49,0,0,0,0,.12l.06-.26.06-.21v0a.08.08,0,0,1,.07,0,.1.1,0,0,1,.07.07v0a.81.81,0,0,1,0,.22,2.46,2.46,0,0,1,0,.26v0l.07-.16.08-.16a.09.09,0,0,1,.1,0,.1.1,0,0,1,0,.08h0a.83.83,0,0,1,0,.22,2,2,0,0,1-.07.26v0l.09-.12.1-.12s.05,0,.1,0a.08.08,0,0,1,0,.07v0a1.37,1.37,0,0,1-.15.38l-.06.11.14-.11a.87.87,0,0,1,.1-.08.1.1,0,0,1,.09,0,.09.09,0,0,1,0,.07h0a.88.88,0,0,1-.26.39l.2-.07h0a.07.07,0,0,1,.08,0,.08.08,0,0,1,0,.09,1.05,1.05,0,0,1-1,.43H9.22l.67.74a.08.08,0,0,1,0,.08s0,0-.06,0a.08.08,0,0,0,0,0,.07.07,0,0,1-.07,0s-.05,0-.07,0l-.62-.77a.31.31,0,0,0,0,.08,1.13,1.13,0,0,1-.57.87.08.08,0,0,1-.1,0,.08.08,0,0,1,0-.08h0l.1-.18a1,1,0,0,1-.43.2H8a.05.05,0,0,1-.06,0s0-.06,0-.09l.09-.09.13-.11-.12,0a1.14,1.14,0,0,1-.4.08h0a.08.08,0,0,1-.07,0,.08.08,0,0,1,0-.09l.14-.08.13-.08h0l-.27,0H7.37a.07.07,0,0,1,0-.14h0l.17-.05ZM9,12.77a1,1,0,0,1-.52.82s0,0,0,0l.23-.41h0c-.16.11-.47.34-.6.33s0,0,0,0a5,5,0,0,0,.4-.4s0,0,0,0a2.37,2.37,0,0,1-.72.21s0,0,0,0,.42-.24.57-.33l0,0h0A3.18,3.18,0,0,1,7.4,13s0,0,0,0,.54-.15.73-.22c0,0,0,0,0,0a4.49,4.49,0,0,1-.9-.05s0,0,0,0l.68-.07.17,0s0,0,0,0a5.5,5.5,0,0,1-1-.25s0,0,0,0c.21,0,.69.07,1,.08,0,0,0,0,0,0a5.7,5.7,0,0,1-1-.38h0c.23,0,.73.17,1,.24,0,0,0,0,0,0a8.78,8.78,0,0,1-1-.52l0,0h0a8.67,8.67,0,0,1,1,.4s0,0,0,0c-.25-.19-.72-.5-.92-.68,0,0,0,0,0,0a7.64,7.64,0,0,1,1,.55s0,0,0,0c-.23-.22-.66-.6-.83-.81,0,0,0,0,0,0a8.8,8.8,0,0,1,.92.71s0,0,0,0a8.58,8.58,0,0,1-.71-.93s0,0,0,0a9.49,9.49,0,0,1,.82.84h0a10.39,10.39,0,0,1-.56-1s0,0,0,0a11.16,11.16,0,0,1,.67.95h0a6.39,6.39,0,0,1-.41-1.06s0,0,0,0c.15.21.38.72.53,1h0a7.8,7.8,0,0,1-.24-1.05s0,0,0,0c.11.24.27.76.37,1h0c0-.27-.08-.79-.08-1,0,0,0,0,0,0a7.64,7.64,0,0,1,.22,1h0c0-.26,0-.74.07-.95,0,0,0,0,0,0a5.36,5.36,0,0,1,.09,1h0c.09-.25.18-.68.23-.83s0,0,0,0a4.53,4.53,0,0,1-.08.89s0,0,0,0c.1-.18.26-.55.33-.69s0,0,0,0a3,3,0,0,1-.2.8s0,0,0,0,.32-.42.41-.51,0,0,0,0a2.31,2.31,0,0,1-.31.68s0,0,0,0a3.3,3.3,0,0,0,.45-.33s0,0,0,0-.28.39-.42.53,0,0,0,0l.45-.17s0,0,0,0a1,1,0,0,1-.89.4h0a1.24,1.24,0,0,0,.37-.17s0,0,0,0a1.46,1.46,0,0,1-.36.16,1.26,1.26,0,0,0,.34-.35s0,0,0,0a1.37,1.37,0,0,1-.36.36,1.4,1.4,0,0,0,.29-.5s0,0,0,0a1.56,1.56,0,0,1-.29.5,2.23,2.23,0,0,0,.2-.6s0,0,0,0a1.79,1.79,0,0,1-.2.59,1.82,1.82,0,0,0,.09-.66s0,0,0,0a2,2,0,0,1-.09.64,2.08,2.08,0,0,0,0-.66s0,0,0,0a2.3,2.3,0,0,1,0,.64A3,3,0,0,0,9,11.72s0,0,0,0a2.35,2.35,0,0,1,.13.64,3.72,3.72,0,0,0-.22-.64s-.05,0,0,0a3.66,3.66,0,0,1,.23.63,5,5,0,0,0-.32-.6s-.05,0,0,0a5.7,5.7,0,0,1,.32.6c-.13-.19-.27-.37-.41-.56,0,0-.05,0,0,0l.41.55-.49-.49s0,0,0,0,.31.33.48.48a4.19,4.19,0,0,1-.54-.4s-.05,0,0,0a5.47,5.47,0,0,0,.54.41,3.42,3.42,0,0,1-.59-.33s-.05,0,0,0a4.19,4.19,0,0,0,.59.32,2.28,2.28,0,0,1-.61-.24s0,0,0,0a2.72,2.72,0,0,0,.62.23,2,2,0,0,1-.63-.14s0,0,0,0a2.1,2.1,0,0,0,.65.14,2,2,0,0,1-.64,0s0,0,0,0a2.15,2.15,0,0,0,.67,0,1.88,1.88,0,0,1-.62.11s0,0,0,0a2.25,2.25,0,0,0,.62-.11,1.48,1.48,0,0,1-.54.21s0,0,0,0a1.81,1.81,0,0,0,.54-.22,1.21,1.21,0,0,1-.41.3s0,0,0,0a1.41,1.41,0,0,0,.4-.29,1.33,1.33,0,0,1-.22.34s0,0,0,0A1.5,1.5,0,0,0,9,12.77Zm.12-.16.65.81s0,0,0,0a.12.12,0,0,1,.08-.06s0,0,0,0l-.71-.77S9.05,12.58,9.08,12.61ZM5.13,9.81h0l-.25,0a.78.78,0,0,1-.22,0h0a.07.07,0,0,1,0-.08.06.06,0,0,1,.06-.06h0l.21,0,.27,0L5,9.53l-.28-.07-.24-.09h0a.07.07,0,0,1,0-.14h0l.23,0,.23,0H5l-.29-.11A1.67,1.67,0,0,1,4.46,9s-.07,0,0-.09a.06.06,0,0,1,.08,0h0l.24,0L5,9l-.25-.14-.23-.14s-.06-.05,0-.1l0,0a.08.08,0,0,1,.07,0l.25.08L5,8.76,4.81,8.6a1.84,1.84,0,0,1-.22-.17.08.08,0,0,1,0-.11.07.07,0,0,1,.08,0h0a2.06,2.06,0,0,1,.26.12l.18.1-.17-.16a1.3,1.3,0,0,1-.19-.22s0-.06,0-.1A.05.05,0,0,1,4.8,8h0a1.43,1.43,0,0,1,.24.16,1.84,1.84,0,0,1,.22.17c0-.07-.11-.14-.16-.22A1.32,1.32,0,0,1,5,7.89v0a.06.06,0,0,1,0-.09.08.08,0,0,1,.1,0h0a2.09,2.09,0,0,1,.22.2,1.53,1.53,0,0,1,.18.18l-.12-.23a1.92,1.92,0,0,1-.12-.25v0h0v0a.08.08,0,0,1,0-.06c.05,0,.08,0,.11,0l.18.22c0,.06.09.12.13.19s-.05-.13-.07-.2a2,2,0,0,1-.08-.26v0h0a.07.07,0,0,1,0-.07c.06,0,.08,0,.11,0l.14.24L5.94,8c0-.07,0-.14,0-.21a2,2,0,0,1-.05-.26v0h0a.08.08,0,0,1,.05-.07c.06,0,.08,0,.1.06a2.44,2.44,0,0,1,.1.24c0,.09.07.18.09.26,0-.07,0-.14,0-.22a2,2,0,0,1,0-.25h0a.08.08,0,0,1,.06-.08c.06,0,.07,0,.09.07s.05.16.08.24l.06.3h0c0-.08,0-.15,0-.23s0-.15,0-.23v0a.07.07,0,0,1,.07-.06.07.07,0,0,1,.08,0v0a.93.93,0,0,1,0,.24l0,.28v.11c0-.08,0-.17.07-.26a1.52,1.52,0,0,1,.06-.2v0s0-.06.08-.05.06,0,.07.07H7A.89.89,0,0,1,7,8,2.11,2.11,0,0,1,7,8.2v0L7,8.08a1.19,1.19,0,0,1,.08-.16.08.08,0,0,1,.09,0s0,0,0,.08h0a.82.82,0,0,1,0,.22c0,.09,0,.18-.07.26v0l.1-.12a.58.58,0,0,1,.1-.12.07.07,0,0,1,.09,0,.07.07,0,0,1,0,.08h0a1.14,1.14,0,0,1-.14.39l-.06.11.13-.11.11-.08a.06.06,0,0,1,.09,0,.08.08,0,0,1,0,.07h0a1,1,0,0,1-.26.39L7.59,9h0a.07.07,0,0,1,.07,0s0,.06,0,.09a1.06,1.06,0,0,1-1,.43H6.64l.67.73s0,.05,0,.09a.08.08,0,0,1,0,.05l0,0s0,.05-.07.05,0,0-.07,0l-.62-.77a.41.41,0,0,0,0,.08,1.09,1.09,0,0,1-.56.87s-.07,0-.1,0a.07.07,0,0,1,0-.08v0h0l.09-.18a.89.89,0,0,1-.42.19h0a.1.1,0,0,1-.07,0,.09.09,0,0,1,0-.09l.1-.09.12-.12-.11,0a1.42,1.42,0,0,1-.41.08h0a.07.07,0,0,1,0-.14l.13-.09L5.32,10h0a1.24,1.24,0,0,1-.27,0,.54.54,0,0,1-.22,0h0A.07.07,0,0,1,4.73,10a.07.07,0,0,1,0-.07h0L5,9.86Zm1.25-.05a1,1,0,0,1-.53.82s0,0,0,0l.23-.42h0c-.15.11-.47.34-.59.33s0,0,0,0a3.78,3.78,0,0,0,.39-.4s0,0,0,0a2.69,2.69,0,0,1-.72.21s0,0,0,0,.43-.23.57-.32,0,0,0,0h0a3.14,3.14,0,0,1-.83.08s0,0,0,0,.54-.16.73-.22c0,0,0,0,0,0a3.86,3.86,0,0,1-.9-.06s0,0,0,0l.68-.07.17,0s0,0,0,0a4.82,4.82,0,0,1-1-.24s0,0,0,0c.22,0,.7.07,1,.08,0,0,0,0,0,0a7.26,7.26,0,0,1-1-.38s0,0,0,0c.24,0,.74.18,1,.25,0,0,0,0,0,0a9.62,9.62,0,0,1-1-.53h0a8.94,8.94,0,0,1,1,.41h0c-.26-.19-.72-.5-.92-.69,0,0,0,0,0,0a6.06,6.06,0,0,1,1,.55s0,0,0,0C5.4,8.68,5,8.31,4.8,8.1c0,0,0,0,0,0a10.41,10.41,0,0,1,.92.71s0,0,0,0A9.81,9.81,0,0,1,5,7.86s0,0,0,0a7.35,7.35,0,0,1,.82.84h0a11.4,11.4,0,0,1-.55-1s0,0,0,0A10.92,10.92,0,0,1,6,8.6H6a7.79,7.79,0,0,1-.4-1.06s0,0,0,0c.14.22.38.73.52,1,0,0,0,0,0,0a10,10,0,0,1-.25-1.06s0,0,0,0c.12.23.28.75.38,1h0c0-.28-.08-.79-.09-1,0,0,0,0,0,0a6.46,6.46,0,0,1,.23,1h0c0-.26,0-.74.06-1,0,0,0,0,0,0a5.36,5.36,0,0,1,.1,1h0c.08-.25.18-.68.23-.82s0,0,0,0a3.93,3.93,0,0,1-.09.9s0,0,0,0c.09-.18.25-.55.33-.69s0,0,0,0a3,3,0,0,1-.21.8l0,0c.11-.13.32-.42.41-.51s0,0,0,0A2.36,2.36,0,0,1,7.1,9s0,0,0,0a3.53,3.53,0,0,0,.45-.33s0,0,0,0a2.09,2.09,0,0,1-.42.54s0,0,0,0l.45-.16s0,0,0,0a1,1,0,0,1-.89.4h0a1.49,1.49,0,0,0,.36-.17s0-.05,0,0a1.49,1.49,0,0,1-.36.17A1.41,1.41,0,0,0,7,9.09s0,0,0,0a1.37,1.37,0,0,1-.36.36,1.56,1.56,0,0,0,.29-.5s0,0,0,0a1.54,1.54,0,0,1-.3.49,2,2,0,0,0,.21-.6s0,0,0,0a1.79,1.79,0,0,1-.2.59,1.88,1.88,0,0,0,.09-.66s0,0,0,0a2.3,2.3,0,0,1-.09.64,2.14,2.14,0,0,0,0-.67s0,0,0,0a2.3,2.3,0,0,1,0,.64,2.9,2.9,0,0,0-.14-.65s0,0,0,0a2.37,2.37,0,0,1,.14.64,3,3,0,0,0-.23-.63s0,0,0,0a3.77,3.77,0,0,1,.23.64,4.36,4.36,0,0,0-.33-.6s0,0,0,0a3.77,3.77,0,0,1,.32.59C6.28,9.2,6.15,9,6,8.84c0,0,0,0,0,0,.14.19.27.36.4.55-.17-.15-.32-.31-.48-.48,0,0-.05,0,0,0l.49.49A4.19,4.19,0,0,1,5.82,9s-.05,0,0,0a3.57,3.57,0,0,0,.55.41,3.37,3.37,0,0,1-.59-.32s0,0,0,0a2.82,2.82,0,0,0,.59.32,2.72,2.72,0,0,1-.62-.23s0,0,0,0a2.34,2.34,0,0,0,.62.24,1.92,1.92,0,0,1-.63-.14s0,0,0,0a2.42,2.42,0,0,0,.65.13,1.72,1.72,0,0,1-.64,0s0,0,0,0a2.15,2.15,0,0,0,.67,0,2.18,2.18,0,0,1-.62.11s0,0,0,0a1.94,1.94,0,0,0,.63-.11,1.81,1.81,0,0,1-.54.22s0,0,0,0a1.56,1.56,0,0,0,.54-.21A1.49,1.49,0,0,1,6,10s0,0,0,0a1.21,1.21,0,0,0,.39-.28,1.15,1.15,0,0,1-.21.33s0,0,0,0a1.11,1.11,0,0,0,.22-.34ZM6.5,9.6l.65.81s0,0,0,0a.18.18,0,0,1,.08-.07s0,0,0,0l-.7-.77S6.47,9.56,6.5,9.6ZM4.62,21.31l0-1a5.7,5.7,0,0,1-1.23-.73,5.46,5.46,0,0,1-1.89-2.6h0l-1-.1h0a.49.49,0,0,1-.31-.13A.66.66,0,0,1,0,16.17a3.5,3.5,0,0,1,.15-.64A14.89,14.89,0,0,0,.6,13.91,2.87,2.87,0,0,0,.52,12.4l0-.08A.22.22,0,0,1,.54,12a.23.23,0,0,1,.28,0l.08.06a4,4,0,0,1,.85.85c.06-.14.13-.27.19-.41a2.72,2.72,0,0,0,.29-1.16v-.07a.24.24,0,0,1,.15-.22.22.22,0,0,1,.25.09l.05.08h0A3.92,3.92,0,0,1,2.76,14l.42,0a.29.29,0,0,1,.24,0c.08.07.07.14.08.23,0,.31,0,.62,0,.92a3.12,3.12,0,0,0,1,2.21l0-.6a2.78,2.78,0,0,1-.56-1.62L3.56,6.64l.18,0,.46-.06,0-1a.21.21,0,0,1-.1-.06A.24.24,0,0,1,4,5.35a.57.57,0,0,1,.07-1.06h0l.25,0,0,0a3.66,3.66,0,0,1-.51-.53l-.07-.11a.73.73,0,0,1-.18-.42.64.64,0,0,1,.2-.5A1.29,1.29,0,0,0,4,2.48.86.86,0,0,0,4.22,2V1.93a.16.16,0,0,1,.11-.15.16.16,0,0,1,.17.05l0,0,0,0A2.39,2.39,0,0,1,5,1.39a2,2,0,0,1,.48-.33A.88.88,0,0,0,5.88.23v0A.16.16,0,0,1,6,0a.17.17,0,0,1,.2,0l0,0a1.15,1.15,0,0,1,.33.69.83.83,0,0,1-.1.38,1,1,0,0,0-.08.23.51.51,0,0,0,0,.13.64.64,0,0,0,.25-.35c0-.09.06-.17.17-.17a.18.18,0,0,1,.16.13s0,0,0,0a1.24,1.24,0,0,1,0,1c0,.09-.08.17-.13.26a2.44,2.44,0,0,0-.1.24.08.08,0,0,0,0,0,.85.85,0,0,1,.23.69,1.34,1.34,0,0,1-.67.85l0,0,.27,0h0a.56.56,0,0,1,.05,1.06.39.39,0,0,1-.06.17.27.27,0,0,1-.1.06l0,.75c.44,0,.87,0,1.31-.06l0-.69a.17.17,0,0,1-.1-.06.24.24,0,0,1-.06-.17.57.57,0,0,1,.06-1.06h0l.25,0,0,0a3.43,3.43,0,0,1-.49-.52,1,1,0,0,0-.08-.11.8.8,0,0,1-.18-.42.69.69,0,0,1,.21-.5l.15-.17A.8.8,0,0,0,7.78,2V1.93a.18.18,0,0,1,.11-.15.17.17,0,0,1,.18.05l0,0,0,0a2.77,2.77,0,0,1,.38-.52A2.27,2.27,0,0,1,9,1.06.88.88,0,0,0,9.44.23v0A.15.15,0,0,1,9.52,0a.18.18,0,0,1,.21,0l0,0a1.2,1.2,0,0,1,.32.69.71.71,0,0,1-.09.38,1,1,0,0,0-.08.23.19.19,0,0,0,0,.13.62.62,0,0,0,.24-.35c0-.09.06-.17.17-.17a.16.16,0,0,1,.16.13,0,0,0,0,1,0,0,1.16,1.16,0,0,1,0,1c0,.09-.08.17-.12.26a.82.82,0,0,0-.1.24l0,0a.88.88,0,0,1,.22.69,1.35,1.35,0,0,1-.68.86h0l.27,0h0a.56.56,0,0,1,0,1.06.24.24,0,0,1-.06.17.18.18,0,0,1-.09.06l0,.69,1.29.07,0-.76a.27.27,0,0,1-.1-.06.39.39,0,0,1-.06-.17.57.57,0,0,1,.07-1.06h0l.25,0,0,0A3.43,3.43,0,0,1,11,3.68l-.08-.11a.73.73,0,0,1-.18-.42.64.64,0,0,1,.2-.5,1.29,1.29,0,0,0,.16-.17A.86.86,0,0,0,11.3,2V1.93a.16.16,0,0,1,.11-.15.18.18,0,0,1,.18.05l0,0,0,0A2.39,2.39,0,0,1,12,1.39a2,2,0,0,1,.48-.33A.88.88,0,0,0,13,.23v0A.16.16,0,0,1,13,0a.17.17,0,0,1,.2,0l0,0a1.15,1.15,0,0,1,.33.69.83.83,0,0,1-.1.38,2.09,2.09,0,0,0-.08.23.51.51,0,0,0,0,.13.59.59,0,0,0,.25-.35c0-.09.06-.17.17-.17a.18.18,0,0,1,.16.13s0,0,0,0a1.24,1.24,0,0,1,0,1c0,.09-.08.17-.13.26a2.44,2.44,0,0,0-.1.24l0,0a.85.85,0,0,1,.23.69,1.32,1.32,0,0,1-.68.86h0l.28,0h0a.56.56,0,0,1,.05,1.06.24.24,0,0,1-.06.17.21.21,0,0,1-.1.06l0,1,.48.06.18,0-.37,8.54a2.77,2.77,0,0,1-.59,1.66l0,.59a3.1,3.1,0,0,0,1-2.24c0-.3,0-.61,0-.92a.32.32,0,0,1,.08-.23.29.29,0,0,1,.24,0L15,14A3.92,3.92,0,0,1,15,11.3h0l.05-.08a.22.22,0,0,1,.25-.09.24.24,0,0,1,.15.22v.07a2.72,2.72,0,0,0,.29,1.16c.06.14.13.27.19.41a4,4,0,0,1,.85-.85l.08-.06a.23.23,0,0,1,.28,0,.22.22,0,0,1,0,.28l0,.08a2.87,2.87,0,0,0-.08,1.51,14.89,14.89,0,0,0,.44,1.62,3.5,3.5,0,0,1,.15.64.63.63,0,0,1-.12.53.49.49,0,0,1-.31.13l-1,.1h0a5.46,5.46,0,0,1-1.89,2.6,6.24,6.24,0,0,1-1.29.76h0l0,1h.42v.17a.33.33,0,0,1-.11.25.67.67,0,0,1-.2.12.16.16,0,0,0-.08.06v0a0,0,0,0,0,0,0c0,.14,0,.26-.1.36a.34.34,0,0,1-.15.07.47.47,0,0,1-.44.28A.45.45,0,0,1,12,22.4a.26.26,0,0,1-.15-.07.13.13,0,0,1-.06-.07.38.38,0,0,1-.05-.21s0-.11,0-.13,0-.05-.08-.06a.82.82,0,0,1-.2-.12.32.32,0,0,1-.1-.25v-.17h.4l0-.56h0A11.85,11.85,0,0,1,9.54,21l0,.64H10v.17a.33.33,0,0,1-.11.26.72.72,0,0,1-.19.11s-.07,0-.09.07h0v0c0,.14,0,.26-.11.37a.52.52,0,0,1-.15.07.49.49,0,0,1-.87,0,.69.69,0,0,1-.15-.07l-.06-.07a.34.34,0,0,1,0-.22.45.45,0,0,0,0-.12s-.05-.05-.09-.07a.72.72,0,0,1-.19-.11.36.36,0,0,1-.11-.26v-.17h.41l0-.65A11.83,11.83,0,0,1,6,20.75l0,.56h.42v.17a.3.3,0,0,1-.11.25.76.76,0,0,1-.19.12.18.18,0,0,0-.09.06v0c0,.14,0,.26-.11.36a.26.26,0,0,1-.15.07.45.45,0,0,1-.43.28.47.47,0,0,1-.44-.28.3.3,0,0,1-.15-.07l-.06-.07a.31.31,0,0,1,0-.21.53.53,0,0,0,0-.13.15.15,0,0,0-.09-.06.76.76,0,0,1-.19-.12.33.33,0,0,1-.11-.25v-.17h.4Z"/></g></g></svg>